<?xml version="1.0" encoding="UTF-8" standalone="no"?>
<svg xmlns:rdf="http://www.w3.org/1999/02/22-rdf-syntax-ns#" xmlns="http://www.w3.org/2000/svg" height="211.21pt" width="211.22pt" version="1.1" xmlns:cc="http://creativecommons.org/ns#" xmlns:xlink="http://www.w3.org/1999/xlink" viewBox="0 0 211.21515 211.21099" xmlns:dc="http://purl.org/dc/elements/1.1/">
 <g>
  <g>
   <path d="m100.82 7.1726-2.875 0.18125-2.1516 0.17969-3.2312 0.35938-1.4391 0.17969-4.3094 0.72031-2.6922 0.54062-1.6188 0.35938-2.8719 0.72344-2.5141 0.71719-4.4906 1.4391-1.9781 0.72344-1.4344 0.53906-3.05 1.2609-1.6172 0.71719-4.4953 2.1625-2.6891 1.4391-1.2578 0.72187-3.5906 2.1609-5.0281 3.4234-2.1563 1.6156-3.7734 3.0641-1.4359 1.2562-1.7953 1.6219-5.3875 5.4016-1.6172 1.8-1.075 1.2609-0.89844 1.0828-1.4359 1.7953-2.1563 2.8844-3.4109 5.0406-1.9766 3.2438-4.6672 8.9984v0.54219l-2.3375 5.0422-1.6172 4.4953-1.4359 4.8656-0.89531 3.6031-0.54063 2.5156-0.72031 4.1422-0.5375 3.9609-0.17969 1.6188-0.18125 1.9828-0.17656 2.8828v10.439l0.17656 2.7 0.18125 1.9828 0.17969 1.6219 0.36094 2.8797 0.71406 4.1438 0.72344 3.4172 1.4328 5.5797 1.6172 5.0422 2.1562 5.5812 4.4906 9.3641 0.35781 0.17969 2.6938 4.8609 3.4109 5.0422 3.5922 4.8609 0.9 1.0828 2.5125 2.8766 6.4641 6.4828 1.6172 1.4422 1.2578 1.0766 1.0797 0.90157 2.1562 1.6219 4.125 3.0625 4.6719 3.0594 3.2312 1.9766 1.6172 0.90469 6.1047 3.0578 1.6172 0.72188 1.2578 0.53906 4.1297 1.6219 5.3859 1.8 1.2578 0.35781 1.4359 0.36406 0.54219 0.17657 2.8719 0.72031 1.6141 0.36093 3.5906 0.71876 2.1562 0.36249 1.2609 0.17969 2.8719 0.36094 1.7953 0.17812 2.1516 0.17969 3.4172 0.18125h8.0781l3.0547-0.18125 2.1531-0.17969 1.7969-0.17812 2.875-0.36094 3.4109-0.54218 3.5906-0.71876 1.6188-0.36093 2.875-0.72031 0.5375-0.17657 1.4344-0.36406 1.7969-0.53906 3.7703-1.2609 1.9734-0.71875 5.2094-2.1609 2.3375-1.0797 2.8703-1.4406 1.9766-1.0797 4.4922-2.7 4.4891-2.8844 2.5109-1.8 4.1297-3.2375 2.5172-2.1609 1.9734-1.8 4.1328-4.1438 1.9734-2.1578 1.2578-1.4438 1.7953-2.1578 4.6703-6.3047 2.8734-4.6797 2.3328-4.5016 0.35938-0.17812 3.7703-7.9234 2.5156-6.6609 0.89844-2.8797 1.6156-6.1203 0.89687-4.3234 0.36251-1.9812 0.35625-2.3391 0.36093-2.8797 0.17656-1.8 0.18126-2.3438 0.17969-4.4984v-4.8656l-0.17969-4.1406-0.18126-2.3391-0.17656-1.7969-0.36093-2.8828-0.71876-4.5-0.71718-3.6031-1.6172-6.3-2.3344-6.8453-2.8719-6.2984v-0.53906l-4.1297-7.9219-4.8484-7.5641-1.9766-2.7-1.2594-1.6234-0.71718-0.89531-0.89688-1.0828-1.0797-1.2609-1.2547-1.4406-2.3328-2.5203-3.0562-3.0594-2.3344-2.1594-1.4359-1.2609-2.1562-1.8-1.7953-1.4406-2.1547-1.6219-5.0281-3.4203-3.2359-1.9766-1.2531-0.72344-1.6172-0.9-5.3859-2.7-1.975-0.9-3.9531-1.6219-2.875-1.0781-3.2281-1.0844-3.0531-0.9-2.6953-0.72031-3.9547-0.89844-1.7906-0.36094-3.2359-0.53906-2.5156-0.36094-3.2312-0.35938-2.3328-0.17969-3.0516-0.18125h-8.6219z" fill="#00274c"/>
   <path d="m103.87 30.218-3.9504 0.18127-2.1523 0.17918-1.6189 0.18335-2.5148 0.35629-2.1565 0.36045-2.6919 0.5438-2.8753 0.71882-1.9752 0.53756-4.3067 1.4397-1.4376 0.53964-3.0566 1.2647-1.9731 0.89592-2.8711 1.4397-1.6189 0.90426-1.2564 0.71882-1.796 1.0814-4.49 3.0586-1.4356 1.0814-2.8711 2.3398-1.4376 1.2626-3.2337 3.0607-0.53964 0.53964-2.5148 2.7003-1.0751 1.2585-0.89801 1.0814-0.72091 0.90009-1.2543 1.6189-0.54172 0.72091-0.89593 1.2605-3.4108 5.4026-2.1565 3.9608v0.53964l-2.6961 5.5797-1.9731 5.7631-1.2543 4.8609-0.54172 2.7003-0.36045 2.1627-0.35629 2.519v1.8023l-0.36045 1.9794-0.18127 5.0401 0.18127 5.4026 0.17918 2.3398 0.18127 1.621 0.1771 1.4397 0.53964 3.2399 0.54172 2.7044 1.6127 6.1194 2.1565 5.9402 3.2316 6.8424 2.5148 4.1421 2.5128 3.7796 3.592 4.863 1.0793 1.2564 1.6127 1.8023 3.9525 3.9629 1.6168 1.4376 1.2585 1.0814 3.4087 2.7003 2.5169 1.8023 0.53756 0.36045 3.4128 2.1606 2.8711 1.6189 3.592 1.8002 1.9752 0.90009 1.2605 0.54172 1.7918 0.71883 1.9773 0.71882 2.694 0.90217 2.5128 0.71883 3.5941 0.90009 2.6899 0.54381 3.417 0.53963 1.4356 0.17711 1.7918 0.18335 2.3377 0.17918h9.3385l2.3336-0.17918 1.6148-0.18335 1.4397-0.17711 1.2585-0.18335 3.2316-0.53964 2.5148-0.53963 2.1565-0.53756 2.5107-0.72299 4.3088-1.4397 1.4376-0.53964 3.4149-1.4418 5.0276-2.519 1.6127-0.90009 3.7733-2.3398 5.2089-3.7837 0.89801-0.7209 1.0772-0.89593 1.4356-1.2626 2.694-2.5211 3.2337-3.4191 1.2543-1.4439 3.7733-5.0401 2.8732-4.3192 1.9731-3.242 3.4128-7.2028 1.2585-3.2399 1.6168-5.0401 1.0772-4.3192 0.36045-1.8044 0.53756-3.2399 0.1771-1.2606 0.18127-1.621 0.17918-1.9794 0.17919-2.8795v-5.9444l-0.17919-3.0586-0.17918-1.9794-0.18127-1.621-0.35629-2.5232-0.90009-4.6796-1.796-6.6611-1.2543-3.6025-2.3336-4.8609v-0.53964l-2.8753-5.4006-3.592-5.5797-2.1523-2.8795-1.4397-1.8044-1.0793-1.2605-1.7918-1.9794-3.4128-3.4191-1.9794-1.8044-2.3336-1.9794-3.7691-2.8774-3.7691-2.5232-2.694-1.6189-1.6168-0.90009-3.9525-1.9815-1.6127-0.71882-3.0545-1.2647-1.4356-0.53964-3.7733-1.2564-2.5148-0.72091-2.1523-0.53964-1.6189-0.36254-1.796-0.36045-2.1544-0.36045-1.2585-0.17918-1.4356-0.1771-1.6168-0.18335-2.1565-0.17918-4.4859-0.18127h-1.9773zm6.1071-28.986 3.0524 0.17918 2.1565 0.18127 1.9752 0.17919 1.4356 0.18127 3.7733 0.53964 1.0751 0.17918 2.8711 0.54381 2.5169 0.53756 4.3108 1.0793 2.5107 0.72299 5.9298 1.9773 1.4356 0.53964 4.8463 1.9794 1.6168 0.72091 6.1048 3.0628 1.6168 0.90009 1.2585 0.72091 2.6961 1.6189 3.592 2.3398 3.0503 2.1606 3.9504 3.0607 2.1565 1.8023 1.4356 1.2605 1.796 1.621 4.6672 4.6796 1.9773 2.1627 1.2585 1.4376 1.0751 1.2585 2.1565 2.7044 2.694 3.6004 1.9773 2.8795 3.2274 5.2193 4.8484 9.3635v0.54172l2.6982 5.9423 2.3336 6.8403 1.9731 7.7425 0.72091 3.6004 0.36045 2.1606 0.35837 2.519 0.35629 2.8815 0.18127 1.9835 0.17918 2.3357 0.18127 3.6004v6.8444l-0.18127 3.7837-0.17918 2.3398-0.18127 1.7981-0.1771 1.621-0.17919 1.4439-0.18127 1.2564-0.71674 4.3234-0.35837 1.8002-1.4376 5.9402-0.53963 1.9835-1.6189 5.0401-1.6127 4.3192-4.49 9.7239-0.36045 0.1771-2.3336 4.5026-3.592 5.761-4.8484 6.4798-2.8732 3.4233-1.9773 2.1606-4.8484 4.863-1.9731 1.8002-2.5169 2.1565-3.0524 2.3398-4.1296 3.0628-2.5148 1.8002-5.5672 3.4212-1.6168 0.90009-6.4632 3.2441-1.6148 0.71882-3.0524 1.2564-2.694 1.0834-3.0545 1.0814-2.8753 0.89801-1.796 0.53963-3.4128 0.90218-3.9483 0.89801-2.8732 0.54172-3.4149 0.53964-2.8711 0.36045-1.796 0.17919-1.9773 0.17918-2.694 0.18127h-11.312l-2.8732-0.18127-3.592-0.35837-1.4356-0.18127-2.5148-0.35837-3.2316-0.53963-3.592-0.72091-5.0276-1.2606-2.519-0.7209-2.8711-0.89801-3.0503-1.0814-4.1317-1.6231-1.2585-0.53964-1.6147-0.7209-1.9773-0.89593-3.2316-1.6231-2.694-1.4397-4.1296-2.5211-4.1296-2.7003-4.6713-3.4233-3.0482-2.3398-1.0814-0.89592-2.8732-2.5232-6.6465-6.6611-1.4356-1.6189-1.0751-1.2606-3.0545-3.9608-3.7733-5.0422-2.3294-3.7816-3.592-6.6632-0.36045-0.17919-3.592-7.7445-2.3357-6.1194-1.2543-3.9566-1.8002-6.8465-0.89384-4.3213-0.36254-2.1586-0.35629-2.3419-0.36045-2.8795-0.18127-1.8002-0.17918-2.3398-0.1771-2.8836v-9.3593l0.1771-3.0607 0.17919-2.1627 1.0793-8.4613 0.53756-2.8795 0.53756-2.519 1.9773-7.3841 2.3336-6.6632 3.0545-6.6611v-0.53964l5.0276-9.3635 3.2357-5.0401 3.4087-4.6796 1.2585-1.621 1.796-2.1627 1.0751-1.2564 1.6168-1.8044 6.4652-6.4798 1.6168-1.4397 1.2564-1.0793 2.8732-2.344 3.592-2.6961 1.7981-1.2647 5.0276-3.2399 2.1565-1.2585 1.2543-0.72091 2.3357-1.2605 2.8732-1.4397 2.3336-1.0793 1.6168-0.72091 3.9525-1.6231 1.4356-0.53964 3.0503-1.0814 1.0793-0.35837 2.3377-0.72091 1.2543-0.36045 2.6919-0.71882 3.0545-0.72091 3.592-0.72091 3.2316-0.53964 2.5148-0.35837 3.2316-0.36045 2.1565-0.18127 3.2316-0.17918h9.5197zm-8.9822 5.9402-2.8711 0.18335-2.1565 0.1771-3.2316 0.36254-1.4356 0.1771-4.3109 0.72299-2.694 0.53756-1.6147 0.36254-2.8753 0.72091-2.5148 0.71882-4.49 1.4397-1.9731 0.72091-1.4397 0.53964-3.0503 1.2605-1.6168 0.71882-4.49 2.1606-2.694 1.4397-1.2564 0.72091-3.592 2.1606-5.0276 3.4233-2.1565 1.6189-3.7691 3.0607-1.4356 1.2585-1.8002 1.621-5.3839 5.4006-1.6168 1.8023-1.0793 1.2605-0.89384 1.0814-1.4397 1.7981-2.1523 2.8815-3.417 5.0401-1.9731 3.2441-4.6692 8.9988v0.54381l-2.3336 5.0401-1.6168 4.4984-1.4356 4.8651-0.90218 3.6004-0.53547 2.519-0.71882 4.14-0.53756 3.9608-0.18127 1.6189-0.17918 1.9835-0.18127 2.8815v10.439l0.18127 2.7003 0.17918 1.9835 0.18127 1.621 0.35629 2.8795 0.71882 4.1442 0.71674 3.417 1.4397 5.5818 1.6168 5.0401 2.1523 5.5839 4.4942 9.3614 0.35629 0.17919 2.6961 4.863 3.4108 5.0401 3.59 4.8609 0.89801 1.0834 2.5128 2.8795 6.4673 6.4798 1.6168 1.4418 1.2543 1.0772 1.0793 0.90218 2.1565 1.6231 4.1296 3.0607 4.6671 3.0586 3.2357 1.9794 1.6168 0.90217 6.1027 3.0586 1.6189 0.72091 1.2543 0.53964 4.1296 1.6231 5.3901 1.8002 1.2543 0.35629 1.9773 0.53964 2.8711 0.7209 1.6189 0.36254 3.59 0.71674 2.1565 0.36462 1.2543 0.17919 2.8753 0.36045 1.796 0.17919 2.1565 0.17918 3.4128 0.18127h7.7195l3.0545-0.18127 2.1523-0.17918 1.8002-0.17919 2.8711-0.36045 3.4128-0.54381 3.592-0.71674 1.6168-0.36254 2.8732-0.7209 1.9731-0.53964 1.7981-0.53964 3.7712-1.2606 1.9731-0.71674 5.2089-2.1627 2.3336-1.0793 2.8732-1.4418 1.9773-1.0793 4.488-2.7003 4.49-2.8836 2.5148-1.8002 4.1296-3.2358 2.5128-2.1627 1.9773-1.8002 4.1296-4.1442 1.9773-2.1565 1.2585-1.4439 1.796-2.1565 4.6672-6.3048 2.8711-4.6817 2.3336-4.5005 0.36462-0.17919 3.7691-7.9216 2.5128-6.6632 0.90009-2.8795 1.6148-6.1194 0.89801-4.3213 0.36046-1.9835 0.35837-2.3398 0.36045-2.8795 0.1771-1.8002 0.17919-2.344 0.18126-4.4963v-4.8672l-0.18126-4.14-0.17919-2.3398-0.1771-1.796-0.36045-2.8836-0.71883-4.5005-0.71674-3.6004-1.6168-6.3027-2.3336-6.8445-2.8753-6.2986v-0.53756l-4.1296-7.9237-4.8505-7.5633-1.9773-2.7003-1.2543-1.621-0.71674-0.89801-0.9001-1.0814-1.0772-1.2605-1.2564-1.4397-2.3336-2.5232-3.0545-3.0586-2.3336-2.1606-1.4356-1.2605-2.1565-1.8002-1.796-1.4397-2.1544-1.621-5.0318-3.4191-3.2274-1.9794-1.2626-0.72299-1.6127-0.90009-5.3881-2.7003-1.9731-0.90009-3.9546-1.621-2.8732-1.0793-3.2316-1.0814-3.0524-0.90218-2.694-0.72091-3.9525-0.89592-1.7939-0.36045-3.2337-0.53964-2.5148-0.36045-3.2316-0.36254-2.3336-0.1771-3.0524-0.18335h-8.2634z" fill="#ffcb05"/>
   <path d="m149.67 63.168-27.659 0.35938h-2.5125v-0.17969h-4.6719v0.17969h-4.4906v-0.17969h-3.2313v0.17969h-0.35781v-0.17969h-0.35624v0.17969h-2.6984v-0.17969h-2.8719l-15.98 0.36094h-0.18126v-0.18125h-7.3656v0.18125h-15.62l-0.54219-0.18125-0.35937 0.18125-0.17813 0.18125v0.71875l0.36094 0.53906 1.075 1.4438 1.0797 2.1562 0.89688 2.8844 0.17969 1.4391 0.17656 10.262 0.36094 38.528v9.7234l0.36094 2.1609 0.18125 0.54063 1.2547 1.8 1.2578 1.4391 1.7938 1.8 0.89844 0.72188 0.53906 0.35781 1.4375 0.9 2.5125 1.2609 3.7703 1.4391 4.4938 1.2609 0.89844 0.17969 2.6922 0.72031 0.17813 0.36249 5.0328 1.4391 9.6938 4.5016 3.4094 2.1609 1.2625 1.2594h0.35624l1.7984-1.2594 0.175-0.36093 2.875-1.4406 3.0516-1.2594 1.6188-0.54064h0.71719l5.0281-1.9828 6.4656-2.7 2.1562-0.53594 3.5922-1.4438 1.4344-0.71719 1.9734-1.0828 2.875-1.9797 4.4906-4.6797 1.0797-2.1609 0.35624-0.9 0.53751-2.7-0.17813-4.5031-0.17813-11.705-0.36093-38.527 0.17968-1.6234 0.18125-1.0797 0.71875-2.3391 1.975-4.1422 0.53751-0.71875 0.71718-0.54062 0.35938-0.53906v-1.0813l-0.35938-0.17969h-0.89375zm17.058 31.688-0.71875 0.35938-0.89844 0.18125-1.4359 0.17812h-5.5641l-3.0578 0.18126-0.35625 0.17812-2.6969 2.1609-0.175 0.90469v1.2563l0.175 0.72343 0.18125 0.5375 0.35938 0.71876 0.5375 0.72031 0.53749 0.36249h0.72188l0.5375-0.36249h0.17813l0.36406 0.17969v0.53905l-0.18282 0.72188-0.53749 1.8031-0.17813 0.35938-2.3375 5.7609-0.35625 2.7 0.175 1.2625 0.18125 0.72031 0.53906 1.0797 0.17657 0.17813 1.0797 0.53905 0.89843 0.18282h3.9516v1.0797l-0.35938 1.4422-0.5375 1.4391-3.4109 7.2031-1.9781 3.7797-1.2578 2.1609-2.5109 3.4203-1.9766 2.3375-3.7703 3.7828-1.2578 1.0828-1.7969 1.4391-1.2578 0.89688-3.5891 2.3438-3.2359 1.9797-3.9484 1.9812-1.2594 0.53907-3.7687 1.4406-1.7984 0.53907-1.2562 0.36093-2.1547 0.53907-3.7734 0.72343-2.8703 0.35625-1.7969 0.18125h-1.7953l-6.4672-0.18125-1.7922-0.17968-1.4359-0.17657-1.2594-0.18281-1.0781-0.17969-1.7953-0.36093-2.875-0.72032-1.2547-0.35937-2.6938-0.9-1.4359-0.54063-1.2562-0.54063-1.6188-0.71874-2.1547-1.0813-1.6188-0.89843-1.9734-1.2594-2.1516-1.4422-2.5203-1.8016-0.89375-0.71718-1.0781-0.9-1.4391-1.2625-5.7453-5.7609-1.075-1.2594-2.1562-3.0641-1.0797-1.6172-3.5922-6.4844-2.1547-5.9375-0.53594-2.5219h2.5141l1.0781-0.18282 0.71719-0.17656 1.075-0.36249 0.71875-0.35626 0.36094-0.36562 0.18125-0.35625 0.17969-0.54375 0.17656-0.71875v-3.7797l-0.17656-1.0812-0.36094-1.4391-0.5375-1.6219-1.2594-2.5188-1.2563-3.4234v-0.36095l1.6172 0.18438h0.71875l1.0781-1.8047-0.17969-1.2578-0.3625-0.9-0.71719-1.2609-0.5375-0.54062-0.5375-0.35938h-5.3906l-3.4109-0.18126-2.6938-0.35937h-1.9766l-0.5375 0.35937-0.5375 0.54063-0.36094 0.54062-0.72031 1.4391-0.17813 0.90469v5.3969l-0.35938 0.18281h-1.6172l-0.5375 0.17969-0.35938 0.18125-0.35781 0.53906-0.5375 1.0797-0.36094 1.0812-0.17812 0.9v5.0375l0.17812 1.2656 0.36094 1.9766 0.17656 0.90156 0.36094 1.6219 1.2547 4.8609 2.875 7.9219 2.6938 5.5797 2.5156 4.1391 2.1516 3.2453 3.5922 4.8609 2.3359 2.6969 4.3125 4.3219 1.6125 1.4437 1.0781 0.89688 1.6172 1.2594 3.0531 2.1625 3.5906 2.3422 1.2578 0.71875 3.4094 1.8 2.3375 1.0797 1.2547 0.54219 2.6937 1.0797 3.7734 1.2594 3.9531 1.0797 1.6125 0.36094 2.6969 0.53906 1.0766 0.17969 1.2578 0.18282 1.4359 0.17812 1.6141 0.17813 2.1547 0.18124h9.3391l2.1562-0.18124 1.6156-0.17813 1.4359-0.17812 1.2594-0.18282 1.0766-0.17969 3.5938-0.71718 3.5922-0.90313 1.7922-0.54062 2.6953-0.9 1.4391-0.53907 0.89375-0.36093 1.2594-0.53907 1.9766-0.9 2.8719-1.4406 4.4906-2.7 2.6938-1.8 3.2281-2.3438 0.90156-0.71875 1.075-0.9 1.4406-1.2609 5.3828-5.4 1.2594-1.4406 0.89687-1.0828 3.9516-5.3969 2.1563-3.6016 3.95-8.2844 2.1531-5.9406 1.4391-5.4 1.0766-5.4031 0.35937-4.6812v-3.0641l-0.18125-0.9-0.35625-0.71562-0.5375-0.54063-0.36094-0.17812-0.53749-0.18125h-2.1563v-3.2422l-0.35937-2.1609-0.89688-2.5172-0.54062-0.90469-0.35782-0.5375-0.18124-0.18125-0.71719-0.35938h-0.53906z" fill="#00274c"/>
   <path d="m96.869 119.52h0.18127v-0.17918h-0.18127v0.17918z" fill="#ffcb05"/>
   <path d="m97.588 9.6944v0.35938l-0.5375 0.54062-0.71875 0.17969-1.9797 0.36094-3.5906 0.53906-4.1297 0.53906-1.7938-0.17812v1.2594l0.175 0.72344 0.36562 1.6172h0.35626l0.35781-0.9v-0.54062l0.18282-0.17656 0.5375-0.18281 0.71719-0.18125 1.075-0.17969 1.2609-0.17969h0.35625l0.18125 0.17969 0.17969 0.36094v1.0828l0.17813 1.2562 1.7984 10.084v1.4406l-0.71875 0.17813-0.18125 0.17969 0.18125 0.54219h0.71875l0.89843-0.36094h1.975l1.2563-0.18125 0.17968-0.35781-0.89843-0.54062-0.35626-0.35938-0.72031-2.7016-0.35937-2.1594-0.89844-5.9422-0.17813-1.4406v-1.6203l0.17813-0.17969 1.6141-0.36094 0.90156-0.18125h0.89844l0.35625 0.18125 0.71875 1.0797 0.54062-0.36094-0.54062-1.6188-0.18126-0.9v-0.72031l-0.175-0.17969h-0.18125zm1.0797 0.72188-0.18125 0.17969v0.72031h0.71875l0.71562 0.71875 1.9781 2.7 1.7922 2.7 1.0781 2.3406 0.18437 0.72031 0.17188 5.9422-0.35625 0.36094h-0.71875l-0.35937 0.17969v0.72031h0.35937l5.5703-0.18125v-0.35781l-0.90312-0.36094-0.35625-0.18281-0.18125-0.17813v-7.2016l3.7734-5.7625 0.53751-0.71875 0.72187-0.54375 1.2531-0.71562 0.18124-0.17969v-0.36094l-0.18124-0.18281h-4.6688l-0.17656 0.18281 0.35938 0.54062 0.71562 0.17812 0.17969 0.18125v0.54062l-0.17969 0.35938-2.1531 3.4203-1.0781 1.4406h-0.35937l-2.5172-3.0594-1.4344-2.5219 0.53751-0.9-0.17813-0.71875h-4.8453zm-15.447 2.3391-3.5906 0.89688-1.0797 0.36406-0.35625 0.35938 0.17813 0.35937h1.0766l0.5375 0.54063 0.54062 1.0812 3.2312 13.142-0.35781 0.54063-0.71719 0.35937 0.17813 0.71875h0.17813l1.4359-0.35781 3.7734-1.0812v-0.71875l-1.6172-0.18125-3.7703-14.044v-1.0828l0.35938-0.17812h0.5375v-0.53906l-0.18125-0.17969h-0.35625zm44.895 0.54062-1.0781 0.17812-0.71875 0.17812-0.5375 0.18281-1.0797 0.54063-1.0766 0.72031-1.4359 1.4391-0.54063 0.71875-1.075 2.3422-0.17969 0.71875v2.7l0.17969 0.72188 0.35781 1.0828 1.4391 2.6984 1.6156 1.6203 0.5375 0.36094 1.7953 0.9 1.0797 0.36094 0.89375 0.17969h3.7734l0.71718-0.17969 1.4391-0.54219 1.2594-0.71875 0.71407-0.53906 1.2578-1.2609 0.54219-0.72031 0.71718-1.2594 0.35782-1.0828 0.17969-0.72188v-3.6l-0.17969-0.71875-0.71875-1.6203-0.35625-0.54062-1.8-1.8-1.2562-0.9-1.0781-0.53906-1.6125-0.54375-0.72032-0.17812-1.2562-0.17812h-2.1562zm-54.233 2.3406-0.18125 0.17656 0.18125 0.72344-0.18125 0.17813h-1.0766l-0.35938-0.17813-1.6188 0.17813-0.71719 0.18125-0.53906 0.17969-1.4375 0.72031-1.6125 1.6203-0.54219 1.2641-0.17969 0.71719v1.2594l0.17969 0.72031 0.54219 1.0781 0.71406 0.90469 0.72188 0.5375 0.54062 0.3625 0.71719 0.35625 1.075 0.36094 0.71875 0.18281 1.0781 0.17656h1.2578l0.71875 0.17969 1.7922 0.53906 1.0781 0.54531 0.72188 0.72031 0.35625 0.71875v0.9l-0.17969 0.36094-0.5375 0.53906-1.6141 0.72031h-2.1547l-0.89844-0.35937-1.0797-0.72188-1.9766-2.1578h-0.17969l-0.17656 0.17969v0.71562l2.1547 3.7844 0.17812 0.9h0.17813l0.5375-0.72031h1.8v0.18125h0.17656l1.0781-0.18125 1.4391-0.36094 1.9734-0.89844 1.2578-1.2641 0.35938-0.5375 0.17813-0.54062v-0.71875l-0.35938-2.8828-0.35625-0.54063-0.71875-0.71562-0.5375-0.36094-0.72188-0.3625-1.6141-0.54219-0.71875-0.17812-1.7969-0.17969-2.1547-0.53906-0.53906-0.18125-1.4375-0.72031-0.71719-0.5375-0.35625-0.72188v-1.2609l0.175-0.36094 0.71875-0.71875 0.36094-0.18125 0.5375-0.17812h2.5156l0.53906 0.17812 0.71875 0.36094 0.5375 0.36094 0.89844 0.71875 0.89688 1.2594h0.36094l0.17656-0.89531-2.3328-3.9656-0.18125-0.53906v-0.3625l-0.17969-0.17656h-0.17656zm69.678 2.3391-0.18125 0.72031 0.71875 0.3625v0.9l-0.35781 0.89531-5.3891 12.245-0.17813 0.17969h-1.6172v0.53906l4.3109 2.1609 0.5375 0.18281h0.53906l-0.17969-0.72188-0.71874-0.54062-0.17813-0.35938 2.3328-5.5797 0.17968-0.18125h0.71875l0.89844 0.35938 1.4344 0.72188 0.90313 0.53906 0.89687 0.71875 0.17656 0.36094-0.17656 1.0812h0.35782l1.9719-3.6v-0.54062h-0.17656l-0.36094 0.17969-0.17656 0.36094h-0.72031l-1.7922-0.54062-1.8-0.90156-0.5375-0.35781-0.5375-0.72188 1.7953-4.3188 0.5375-0.54375 0.36094-0.17656h0.35937l0.53751 0.17656 2.1547 1.0828 0.89844 0.54062 1.0766 1.0766 0.35938 0.9-0.17813 1.6234h0.35625l1.0797-2.1609 0.35625-0.18281 0.3625-1.0797-6.6469-3.4172-4.1281-1.9828h-0.17969zm-86.2 5.5828-0.71875 0.17969-0.89844 0.35938-1.0766 0.54062-0.89844 0.53906-1.4359 1.0812-2.1562 2.1609-1.6172 0.90156v0.5375h0.5375l0.89844-0.18125 0.5375 0.54062 0.72188 0.9 7.9016 10.264v1.0781l-0.35937 0.72188h0.35937l0.71719-0.9 2.6969-1.6188 0.35625-0.36094v-0.54063h-0.17812l-0.35938 0.36094h-0.5375l-3.0547-4.1438-0.5375-0.35625-0.17969-0.72187 0.35625-0.3625 0.72031-0.35937h0.5375l0.5375 0.53906 1.9766 1.0844 1.2563 0.53906 2.3359 0.72031h3.0562l1.2531-0.35937 0.72031-0.54063 0.17812-0.35938v-0.54531l-0.71719 0.18281h-0.5375l-1.2625-0.18281-1.4344-0.35625-0.5375-0.18281-1.2547-0.53906-3.7734-2.3406v-0.35938l0.5375-0.36094 0.72031-1.2594 0.35937-1.0812v-2.1594l-0.18125-0.71875-0.17812-0.36094-1.2578-1.4406-0.36094-0.18125-0.5375-0.17813-0.71875-0.17969h-2.5125zm103.62 4.4984v0.54375l1.075 1.8-0.35625 0.53906-4.1313 5.9406-1.9797 2.5203-2.15 2.5203-0.36094 0.18281h-1.4359v0.5375l0.18125 0.18281 1.7922 1.2562 1.0797 0.9 0.72031 0.36094v-0.72031l-0.54219-0.71719 0.17813-0.9 4.6703-6.1234 1.2594-1.6234 0.35624-0.35625h0.36251l-0.9 5.7625-1.4375 6.6625v1.2578h0.35938l1.7969-0.71875h0.71563l4.4922-1.8047 3.5922-1.2562h0.71875v0.36094l-1.4375 1.6172-5.2109 5.0422h-1.075l-0.71562-0.72031h-0.18281v0.36094h-0.18125l3.9547 4.3234 0.17812-0.54375-0.53749-0.9 2.3328-2.5203 7.9031-7.9203 0.35625-0.17969h0.53906l0.3625 0.17969 0.53907 0.5375h0.35624l-0.17812-0.71719-0.36093-0.54375-2.3328-2.3391h-0.18125l-1.2547 0.35938-2.1562 0.72031-5.5656 2.3438-2.6969 0.9h-0.71562l2.1547-11.164 0.17968-1.0797 0.18125-0.9-0.18125-0.72031-2.3344-2.1609-1.2578-1.0828h-0.53749zm-115.65 3.2438-0.71875 0.72031-5.3875 5.7594-0.5375 0.53906-1.2594 0.90469 0.17969 0.71563h0.18125l0.35781-0.35938h1.0781l0.89844 0.72031 4.3109 4.1422v0.36094l4.6672 4.5 0.17812 1.4406-0.35625 0.18125-0.17813 0.89687h0.35625l5.3875-5.0391 2.875-2.3406v-1.4391l-0.36094-1.6234h-0.17656l-0.36094 0.18281-0.5375 1.6172-1.0781 1.6234-1.7969 1.8-1.2578 0.53906h-0.71719l-2.6969-2.5234-1.2531-1.6156 2.6937-2.7031 0.35781-0.17656h0.89844l0.17969 0.35625h0.71563l-2.1516-2.3406-0.54219-0.72031v-0.35625l-0.17812-0.18281h-0.17812l0.17812 1.6203-0.72031 0.9-2.5125 2.3406h-0.35781l-3.9531-3.9609v-0.54062l0.36094-0.53906 1.6172-1.6219 1.0766-0.71875 1.075-0.54062 1.8 0.18125h0.17812l-0.36094-0.9-0.5375-0.36094v-0.36094l-1.2563-1.0781h-0.17969zm-8.4406 9.0016-3.2313 3.2406 0.35625 0.53906 0.71875-0.53906h0.71719l3.0547 4.6797 2.5141 4.8609h-1.4359l-4.1328-0.71719-3.4094-0.72344-2.3375-0.53906-0.35625-0.17656-0.18125-0.18438v-0.71562l0.18125-0.36563-0.18125-0.17812h-0.36094l-1.075 1.6203-1.7937 3.0625h2.8688l11.677 1.9797 0.71719 0.36094 2.8734 0.53906h0.71562l0.18125-0.18281-0.35781-0.71719v-0.53906l-7.5422-12.783-0.17969-0.54219v-1.0797l0.36094-0.72031-0.18125-0.17969h-0.17969zm143.49 6.6625-0.17812 0.17656 0.17812 0.18438v0.89531l-1.4359 1.4406-1.4359 1.2641-7.5422 6.3031-0.72031 0.35625h-1.075l-0.36093-0.54062h-0.5375v0.36094l1.4359 1.4406 1.975 2.8828h0.3625l-0.18125-1.8047 9.875-7.7406 1.0781-1.2578h0.71875l0.36093 0.17969 0.5375 0.53906 0.35938-0.36094-2.3328-3.4188-0.90313-0.9h-0.17813zm-155.7 8.6406-1.4359 2.3406-0.35625 0.9-0.72031 0.9v0.71875h0.35625l0.36406-0.54063 0.35625-0.17812h0.54219l0.89375 0.35938 2.6969 1.4406 1.2578 0.72344 7.3609 4.5 0.5375 0.53906-0.18125 1.2609h0.18125l0.54062-0.53906 1.9719-3.4219v-0.9h-0.175l-0.71875 0.72031h-0.89688l-6.8281-4.1391-0.89375-0.54375-1.0797-0.35625-3.5922-2.3438 0.17969-1.2562-0.17969-0.18438h-0.18125zm156.96 0.9-1.0781 0.18125-0.71718 0.17656-1.2547 0.54375-1.0797 0.72031-2.1531 2.1625-0.71718 1.0766-0.72188 1.6234-0.18125 0.71719v3.2406l0.18125 0.71875 0.5375 1.2641 0.71718 1.0797 1.7969 1.8 0.54063 0.36094 1.0797 0.53906h0.89375l3.0547-1.4438v-0.5375l-0.71875 0.18125h-1.6141l-0.89844-0.18125-0.54218-0.17969-1.075-0.53906-0.89532-0.9-0.71875-1.4438-0.18125-0.54062v-1.4391l0.5375-1.4406 0.3625-0.53906 0.5375-0.71719 1.4328-1.2609 0.54218-0.3625 0.89844-0.5375 1.9766-0.90312 0.53751-0.17969 0.71718-0.17969h2.1547l0.72031 0.17969 0.5375 0.17969 0.71876 0.36406 0.53905 0.35625 0.71719 0.72031 0.53907 1.4406v2.5234l-0.53907 1.4391-1.2562 1.8h0.53905l2.8719-1.4438 0.18125-0.17812-0.18125-0.35781 0.18125-1.2594h0.17969l-0.17969-1.9844-0.3625-1.4391-0.71719-1.6172-0.36093-0.54375-0.89532-1.0797-1.2562-1.0812-0.53907-0.35781-1.6188-0.54063-1.0766-0.18125h-2.6938zm-161.09 6.3016-0.17812 0.18438v0.35625l-0.17812 0.54375-0.35938 0.89531-1.2562 2.3406h0.35625l0.3625-0.53594 0.35625-0.18281h0.54062l0.35625 0.35938 1.2594 0.54062 0.89844 0.35781 4.1266 1.6203 2.5172 0.90469 0.71875 0.53594-1.2609 0.72031-4.4859 1.6234-5.3891 1.6203-3.4109 1.2594-0.36094 0.36094-0.17656 1.0812-0.72188 1.2578-0.17656 1.6203 0.71719-0.72031v-0.36094l0.18125-0.17813 0.35625-0.17969h1.0781l2.1578 0.53906 2.5094 0.71875 3.7734 1.2609 1.9734 0.72343 2.3359 0.9 0.71875 0.36094 0.18125 0.17656 0.17969 1.0797h0.17656l0.72031-3.4188 0.5375-1.0828v-0.35781h-0.17812l-0.71875 1.0797h-1.0797l-0.89844-0.18125-3.7688-1.0797-4.3094-1.4391-0.89688-0.54062 0.71562-0.35938 3.9516-1.4406 10.059-3.2391 1.075-0.54375v-0.89688l-0.35625-0.36406-2.6969-1.2563-9.6938-4.1406-1.4406-0.3625-0.5375-0.5375-0.17969-0.53906v-1.0844h-0.18125zm172.94 6.1234-2.3328 1.9781-1.2562 0.54062-1.7969 0.72031-8.6234 3.2422h-0.89375l-0.18125-0.54375h-0.36094v0.36406l1.7969 4.5016h0.36093v-0.72188l0.17656-0.9 0.36095-0.18281 4.8484-1.6172 0.35937-0.36094h0.7172l0.53749 1.8 2.3375 6.3016-1.2578 0.53906-3.2312 1.0797-1.6172 0.36406h-0.89843l-0.53751-0.90313-0.18124-0.17969h-0.17969l-0.17813 0.17969v0.72031l0.72031 1.4391 0.71719 3.0609h0.17656l0.18125-1.2562 0.35626-0.18282 5.0312-1.6219 5.2047-1.6203 2.5172-0.71875 0.71875-0.18125h0.71875l0.71719 1.0812h0.36093v-1.2609l-0.36093-1.4391-0.71719-2.3406-0.3625-0.18281h-0.17656v0.90156l-1.975 0.90312-3.2344 0.9h-0.71562l-1.6203-4.3219-1.075-3.9625 0.17968-0.18125 3.2312-1.2578 1.4375-0.5375h1.2594l0.7172 0.5375v-0.72188l-0.7172-1.0797-0.36249-1.6156-0.54063-1.0844-0.17656-0.17812h-0.17968zm-179.94 13.144-0.53906 1.8v0.89532l-0.35937 1.6219h0.17812l0.5375-0.89688h1.0766l1.2609 0.17501 1.7922 0.36562 4.8516 1.2578 1.0781 0.36094 0.89688 0.35938 1.4359 0.72031 1.2594 1.2594 0.35781 0.72188v1.9828l-0.35781 0.71719-1.2594 1.0797-0.54062 0.18282-1.2547 0.17656h-4.8484l-2.1563-0.17656-3.5922-0.3625-1.4359-0.17657-0.18125-0.18438v-0.71718l-0.17969-0.18282h-0.17656l-0.18125 0.54062-0.17969 1.0828-0.18125 3.4172h0.18125l0.36094-0.71718h1.2578l2.6906 0.17656 3.9547 0.54062h5.3828l1.0797-0.17968 0.5375-0.17657 0.72188-0.36094 1.4344-1.4438 0.71719-1.4391 0.18125-0.54062 0.18125-0.71718v-2.7016l-0.18125-0.72031-0.36094-0.9-0.35625-0.54375-1.2578-1.2578-0.54219-0.35938-1.6156-0.71874-1.6156-0.54063-2.5141-0.72499-6.6453-1.4344-0.35625-0.18438-0.36094-0.36094v-0.71563h-0.17656zm67.341 0.71719-0.17969 0.72031v2.1594l0.36094 1.0812-0.18125 0.18282h-0.89844l-0.35625 0.35625-0.18125 0.36094-0.17969 1.8016-0.71875 0.18126-0.17812 0.35625v0.72344h5.0266v-0.72344l-0.71406-0.5375v-0.35781l0.71406-0.18125 0.17969-0.18438 0.18126-0.35938v-0.89688l-0.18126-0.35937-0.35625-0.3625-0.5375 0.18282h-0.72188v-2.3438l-0.17656-0.71875-0.36406-0.72187-0.35625-0.35938h-0.18125zm24.966 0.9-0.54219 0.53906-0.35625 0.54062-0.18125 0.9-0.36093 1.4422 0.54218 0.17813h1.9734l0.53906-0.17813 0.17813-0.17812-0.17813-1.2641-0.72031-1.2594-0.35625-0.53906-0.18125-0.18125h-0.35625zm2.3297 4.3219-2.3313 0.17969-0.54062 0.35938h-0.5375l-0.89688-0.35938h-0.35937v0.35938l0.89688 0.36094h0.89687l1.0813-0.18125v-0.17969h0.53749v0.17969h1.0766l0.35782-0.17969v-0.53906h-0.18125zm23.348 0.71875-0.71562 0.18125-0.54218 0.18282-1.0797 0.54062-0.71719 0.71562-0.35781 0.54062v0.35938l0.35781 0.17969 0.54062 0.18125 0.71875 0.17969h2.8703v0.90469l-0.17656 0.53906-0.17968 0.35625-0.3625 0.54375-2.6938 2.3359h1.4406l1.9719-1.2562h0.72188l0.17656 0.71562h-0.17656l-0.17968 0.54062v2.3438l0.17968 0.53906 0.5375 1.0813 0.17969-6.3-0.35781-0.9v-0.72031l0.53906-0.72344 0.89688-0.71718 0.35937-0.72344-0.17813-0.35938h-1.2594l-1.6156-1.0797-0.54218-0.18125h-0.35626zm67.702 0.53906-0.17969 0.18281v1.0813l-0.17657 0.17969-1.7953 0.53906-1.6187 0.36094-3.5906 0.71874-1.975 0.36406-4.3109 0.71719h-1.4391l-0.3578-0.36094-0.18125-0.53906v-0.36094h-0.35626v1.4406l0.35626 1.9781 0.36405 0.9v1.8047l0.35626 0.35625 0.18281-1.6187 0.17657-0.36094 0.36093-0.18125 10.414-1.9781 1.975-0.35625 1.0781-0.18438h1.0797l0.35624 0.36094 0.18126 0.71874h0.17969v-1.9797l-0.53751-3.2391-0.17968-0.54375h-0.3625zm-95.178 0.54375-0.17813 0.72031 0.35938 0.17969h3.9469l0.18281-0.9-0.36094 0.17812h-0.35937v-0.17812h-0.71719v0.17812h-1.075v-0.17812h-1.7984zm-25.858 1.9797-1.2578 0.17813-0.71875 0.18125-0.17969 0.17813 0.35625 0.36562 2.3359 0.175 2.6922 0.18125h2.3375l1.4359-0.18125v-0.54062l-0.5375-0.17813-1.2594-0.18125-3.0547-0.17813h-2.15zm30.525 0.17813-4.8469 0.18125-1.2562 0.17813-0.89844 0.54062-1.7953 1.8047-1.0797 1.6203-2.3328 2.1578v0.36094l1.2594 0.18125h12.747l3.7719-0.18125 1.9766-0.18125 0.17813-0.35782-0.71563-0.36094-4.8516-5.2188-0.71719-0.36562-1.0766-0.35938h-0.3625zm-29.809 2.3422v0.17968l1.0766 2.5203 0.72031 1.4406 1.0797 1.8 0.71562 0.9 1.6172 1.8 1.975 1.9844 2.6922 2.3344 1.4359 0.90469 1.6188 0.9 1.075 0.53906 0.89843 0.18282 1.0797 0.17656 2.3328 0.36094 1.4391 0.18125 2.5141 0.18281h7.9016l3.5906-0.36406 2.5172-0.36094 1.7922-0.35938 3.0547-0.72031 1.4375-0.53906 0.89688-0.36094 1.0781-0.53906 0.35781-0.54063 3.4109-2.5234 1.975-1.0766 1.9781-1.9797 0.17656-0.72188h-0.17656l-0.35938 0.17812-0.9 0.54376-0.35625 0.54062-0.54219 0.17657h-0.5375l0.18125-3.7797-0.3625-0.18126-1.2531-0.35625h-0.18438l-0.35625 0.35625-1.2562 0.53906-0.89843 0.36562-2.1562 0.71719-0.71563 0.18281-1.4375 0.175-1.7969 0.18126-4.311 0.36093-2.8734 0.17812h-10.955l-2.5125-0.17812-1.9734-0.17812-1.4406-0.18281-1.2578-0.18126-1.075-0.175-2.6938-0.54374-1.4359-0.35626-0.54219-0.18437-1.2578-0.53906-0.35625-0.18126-1.6172-2.1609-0.89843-1.4391-0.17813-0.17968h-3.9516zm-34.478 2.5219-0.5375 0.17969-0.36094 0.54062-0.36094 0.72031-0.35781 1.0797-0.18281 1.2594v2.1594l0.36406 1.8016 2.3328 0.17969h6.6438l0.89688 0.18125 0.3625 0.17968 0.17812 0.17813 0.53906 0.72187 0.35781 0.71876 0.36094 1.0812 0.17656 1.0797v3.4219l0.17969 2.1609 0.18125 1.2609 0.18125 0.53907 0.175 0.35937 0.36406 0.54063h1.0766l0.35938-0.54063 0.17812-0.54063 0.17812-0.71874v-2.7l-0.35625-1.9797-0.72031-2.7031-2.3344-5.0406-0.5375-1.9797v-2.7l0.17969-0.72031 0.17656-0.36406-7.1813-0.35625h-2.5125zm121.22 0-0.89374 0.35625-2.1563 0.18438h-5.3906l0.18125 1.0797v2.7l-0.18125 1.4438-0.17969 0.9-0.5375 2.1562-2.875 7.7453v2.6969l0.71875 1.0813h0.53906l0.54219-0.35938 0.17344-0.36093 0.18281-0.53907 0.18125-0.9 0.17656-1.4438v-2.1578l0.17969-1.6188 0.18125-0.90313 0.36094-1.0797 0.5375-1.0812 0.71875-0.9 1.0766-0.54063 1.4359-0.35781 1.2578-0.18125h5.3859l1.0797-0.17969 0.17969-3.4203-0.17969-1.0844-0.53905-1.7953-0.54064-1.0844-0.3578-0.35625h-1.2578zm-11.131 0.71875-0.54218 0.53906-0.17657 0.36094v1.9828l0.35625 1.0781h1.0781l0.53751-0.17656 0.18125-0.18437v-2.3391l-0.3625-0.9-0.17501-0.17969-0.54062-0.18125h-0.35625zm37.172 0-0.90156 0.18125-0.71407 0.17969-0.89843 0.35938-1.4391 0.72343-0.53751 0.35626-1.4344 1.2609-0.54219 0.72344-0.35781 0.53906-0.89532 1.9766-0.18124 0.72343v3.0609l0.18124 0.71875 1.0766 2.8812 0.17656 1.9797 0.89844-0.36094h4.4906l0.89687 0.17969 0.36093 0.36406 0.35938 0.9h0.18126l0.35624-1.2641v-4.3188h-0.35624l-0.18126 0.71563-0.18125 0.18437-0.71718 0.18125h-2.5156l-1.2531-0.18125-0.72032-0.18437-1.0766-1.0766-0.3625-0.71875-0.17969-0.53906v-1.4438l0.17969-0.71719 0.18125-0.36094 0.36093-0.53906 0.89688-0.90468 1.0766-0.71876 1.0766-0.5375 0.53907-0.18281 1.0781-0.17969 1.4359-0.17656h1.7953l1.4391 0.17656 0.71875 0.17969 0.5375 0.18281 1.2594 0.5375 0.71719 0.53907 1.2562 1.2625 0.71563 1.6172 0.18125 0.9v1.4437l-0.18125 0.71875-0.17656 0.53751-0.17969 0.36562-1.4391 1.4391-1.075 0.54063-1.0781 0.17812-0.3625 0.18125-0.175 0.54063h3.7703l0.35938-0.18126 1.2594-2.1609 0.53749-1.4406 0.17813-1.0781v-2.5234l-0.17813-1.0781-0.53749-1.6188-0.36564-0.72031-0.35624-0.53906-0.5375-0.72344-1.6156-1.4422-0.5375-0.35781-1.0828-0.54062-1.6125-0.53906-0.90156-0.18125h-2.6906zm-135.76 0.18281-0.3625 0.35625v1.8047h1.7969v-0.9l-0.5375-1.0812-0.35938-0.17969h-0.5375zm74.888 0.17813-0.18125 0.17656v0.3625l-0.36093 1.0797h0.17656l0.9-0.71875 0.18124-0.72344-0.18124-0.17656h-0.53438zm-107.39 7.2016-0.18125 0.17969v0.53751l0.89844 0.36405 0.71875 0.71875 0.35625 0.54063 0.54062 1.2594 0.35625 1.6203v3.6l-0.35625 0.54375-0.54062 0.17656-1.4344 0.18437-3.4125 0.35625h-0.35781l-0.36094-0.89687-0.17969-3.6 0.54062-0.36406 0.18125-0.17969v-0.35625h-1.2625l-2.5109 0.35625v0.36094l0.89688 0.18281 0.17812 0.35625 0.53906 4.3234-0.17812 0.17656-0.71719 0.18437-0.89844 0.17813-2.875 0.36094h-0.35625l-0.36094-0.18282-0.18125-4.8578 0.54219-1.2641 1.0766-1.0797v-0.53906l-1.6188 0.18125h-0.5375v-0.18125h-1.0797l-0.17656 0.18125 0.17656 5.3984 0.18125 2.3438 0.17969 1.9797 0.18125 1.4391 0.17656 1.0812 0.54219 0.35938 0.35625-0.35938v-0.9l0.18125-0.18125 1.6156-0.35781 1.9766-0.36094 1.0766-0.18282 8.0812-0.89687 1.0781-0.36406h0.71719l0.36094 0.36406 0.35781 1.0797h0.35625l-0.35625-2.8828-0.18125-2.6969v-3.2438l-0.17656-2.1609-0.17969-0.53906-0.54219-0.54063-1.075-0.71875-1.2578-0.72031-0.71719-0.36094h-0.35781zm16.52 0.9-0.35938 0.18282-0.54219 0.53594-0.35625 0.90468-0.18125 1.2562v2.8828l0.18125 1.6219 0.18281 1.2562 0.35625 2.1625 0.71875 3.6 1.0781 4.1406 1.9766 5.7625 3.4094 7.2016 1.7953 2.8781 2.1562 3.2453 2.3344 3.2391 1.7953 2.1594 1.4375 1.625 4.1281 4.1391 1.6203 1.4359 1.0766 0.90468 1.6141 1.2609 2.5141 1.8 2.1578 1.4375 2.8703 1.8 1.6172 0.90156 2.8734 1.4406 1.9766 0.9 1.2562 0.53906 0.89844 0.36094 1.4375 0.53906 3.05 1.0844 2.5156 0.71562 3.5937 0.9 2.6906 0.54063 1.0813 0.18281 2.5094 0.35625 1.8016 0.18438 2.3281 0.17656h8.264l2.1547-0.17656 1.7953-0.18438 1.4406-0.17656 2.1516-0.3625 2.6938-0.54063 3.5922-0.9 1.2562-0.35937 5.3891-1.8 1.7953-0.72187 1.2562-0.53907 2.3344-1.0797 3.0531-1.6188 2.8766-1.8 2.1516-1.4422 3.2312-2.3391 0.89843-0.72344 1.0797-0.89531 1.4359-1.2609 5.2062-5.2234 1.2609-1.4406 5.0266-6.6625 3.2328-5.4 2.5141-5.2203 1.7953-4.6828 0.89843-2.8828 0.53751-2.1578 0.36093-1.6219 0.17656-0.9 0.36095-1.9781 0.18124-1.4406 0.17969-1.6203 0.17656-2.8797v-3.2438l-0.17656-0.72187-0.17969-0.35782-0.3625-0.36093-0.35625-0.18125h-6.8281l-2.5109 0.18125 0.17813 3.2438v3.6016l-0.17813 2.1578-0.35938 1.8-0.89843 3.4219-1.9781 5.5797-2.5125 5.2234-1.4344 2.339-2.3344 3.7797-3.7734 4.861-3.5922 3.7828-2.1547 1.9812-1.0766 0.9-0.89531 0.72032-2.5172 1.8-3.2312 2.1594-1.2578 0.72031-5.0266 2.5234-1.6188 0.7172-0.89844 0.36249-1.4359 0.53907-2.1562 0.72031-1.2516 0.35625-2.8766 0.72344-2.6938 0.53906-1.0781 0.18125-1.2547 0.18125-1.6188 0.17813-1.9734 0.18124h-8.8016l-1.9719-0.18124-1.4391-0.17813-1.2594-0.18125-2.1547-0.35938-1.7937-0.36093-2.875-0.72344-1.2547-0.35625-3.2344-1.0781-1.7953-0.72187-1.2594-0.53907-3.5906-1.8-2.5109-1.4438-3.0547-1.9797-2.5156-1.8-0.89688-0.71874-1.0797-0.90313-1.2547-1.0781-4.4891-4.5016-4.1328-5.2234-3.5922-5.7609-2.8734-6.1219-1.075-3.0594-0.71875-2.7016-0.53906-2.1578-0.53906-2.3422-0.17969-0.90157-0.17969-1.0812-0.17656-1.2594v-4.1391l0.35625-1.0781v-0.9l-4.6672-0.18282h-4.4906zm11.313 0.35782-0.17656 0.18125-0.54219 1.2625v3.2391l0.54219 3.7828 0.89375 2.6984h2.3375l-0.35937-0.53594-0.17969-0.54374-0.18125-0.71876-0.17656-0.9-0.17969-2.1609v-3.2438l-0.18125-1.2562-0.36094-1.2609-0.35625-0.3625-0.3625-0.18125h-0.71719zm107.93 0.54218-0.71875 1.4406-0.35781 1.0781-0.18125 0.90156-0.18125 1.4406v2.5234l-0.17813 1.6172-0.35937 1.6188h1.8l0.35624-0.17969 0.53751-2.1594 0.18125-1.0797 0.17968-1.2609v-4.6797l-0.17968-0.72031-0.36094-0.35938-0.35782-0.18125h-0.17968zm-58.006 5.7625v0.35625l1.2594 0.36406 0.89688 0.9 0.53749 0.89843 0.17969 1.0813-0.17969 0.9-0.89687 1.4406-0.71719 0.35938-2.5156 0.71874-1.0766 0.72188-0.89531 0.9v0.3625l-0.54219 0.36094v0.53906l0.71406 0.36094 1.0812 0.35625 1.4359 0.35938 1.075 0.17969 1.4406 0.18124h4.8484l1.975-0.18124 1.6172-0.17969 1.0766-0.17657 0.71875-0.18281 0.53749-0.17969 0.7172-0.36093 0.18124-0.17657 0.17813-0.3625v-0.71719l-0.5375-0.9-1.2562-0.54374-0.89531-0.36095-1.6188-0.53905-1.2562-0.53907-0.54219-0.36093-0.71719-0.72032-0.5375-1.0797v-1.6188l0.17813-0.54062 0.5375-0.725 0.36406-0.35625 0.5375-0.18281-4.4922-0.35625h-1.4375v0.17969h-0.89375v-0.17969h-1.0797zm82.966 0.35781-0.175 0.18125-0.54062 5.4016h0.17657l0.18281-0.71875 0.18124-0.18125 0.35626-0.18281h1.2578l0.35937 0.18281 2.6938 1.6219 0.17968 0.17812-1.0812 6.4797-0.35626 0.36094-0.5375 0.18281-0.71875 0.17812-0.89844 0.17813-2.3328 0.36094h-0.54062l-0.35782-0.36094v-0.71875l-0.18124-0.18125h-0.17969v0.36094l-0.89687 3.2406-0.53751 0.72187v0.7172h0.35625l0.18126-0.53907 0.18124-0.17813 0.5375-0.17812 14.008-2.3406h1.2562l2.1562-0.36406 1.9734-0.35625 0.35938-0.54063-1.2578-2.3391-1.7937-1.2625-2.336-1.4406-7.5422-4.3203-3.5906-2.3406-0.17969-0.35937v-1.0797l-0.18125-0.36406h-0.18126zm-156.06 7.0219v0.9l-0.35938 0.17969-0.5375 0.18124-6.6469 1.8-4.3062 1.0828-2.5156 0.53595h-0.54219l-0.35625-0.53595h-0.17812v1.4406l0.71562 3.4188h0.5375l0.18125-0.9 0.35625-0.35781 2.5172-0.72188 0.71875-0.18125 1.075-0.17813h0.72187l0.17656 0.17813 1.2594 4.1406 0.5375 3.0609-0.35938 0.18126-4.3078 1.439-1.4406-0.18124-0.17656 0.18124 1.2563 3.2406 0.72031 1.0828h0.17812v-0.90469l0.35938-0.35625 2.3344-0.9 1.0766-0.18282 5.2094-2.339 1.9734-0.72188 2.875-0.89844h0.71719l0.3625 0.54063h0.35625v-0.72188l-0.5375-0.71875-0.18125-0.5375-0.5375-2.3438-0.17969-0.36094h-0.36094l-0.89531 1.2609-2.3359 1.0797-3.2312 1.2609h-0.71875l-0.36094-0.54062-0.35625-0.9-1.2609-4.8609-0.17813-0.71875 0.17813-0.18281 0.36094-0.17657 1.0797-0.36249 4.8484-1.2578h0.35625l0.3625 0.17969 0.53438 0.72188h0.18125l0.18125-0.18282-0.72188-2.5219-0.175-1.0797v-0.9l-0.3625-0.36093h-0.17812zm151.93 11.164-0.17968 0.18282-0.35782 1.2562-0.17969 0.54062-0.17656 0.35938-0.53906 1.6219h0.175l0.72031-0.9h0.5375l2.1578 0.72187 2.8734 1.0797 4.3109 1.8 1.075 0.53749-13.828 4.8641-2.1547 0.35938-1.0766 0.54062v0.35938l-0.35782 0.17968v0.53907l0.17657 0.17969 3.7688 1.8 2.3375 1.0812 2.5125 0.9 5.7516 2.8797 0.35624 0.36094-0.18124 0.54375v1.0797h0.36249l0.35626-0.36094 1.9766-3.9625-0.18125-0.17969h-0.35626l-0.35936 0.71875h-1.0797l-7.0016-3.2391-2.1562-1.0812v-0.35938l0.36094-0.18124 3.5922-1.2578 8.0797-2.7 2.875-0.72187 0.71718-0.53907 0.36094-0.71875 1.4344-3.9656-0.17812-0.17812h-0.18125l-1.4359 1.439-0.17969 0.36095-0.53749 0.1828h-1.2578l-6.6453-2.8844-1.7953-0.71563-4.1312-1.4406v-1.0828h-0.36094zm-145.82 7.2016v1.0812l-0.18125 0.17969-1.975 1.0797-9.8766 5.0438h-0.71875l-1.4344-2.7-0.36094-0.90157v-0.54218l0.54219-0.9-0.18125-0.17969h-0.17969l-2.3375 1.2594-0.17812 0.18124v0.53907l0.17812 0.36093 0.35938 0.18282 6.4672 12.598 3.0531-1.6187v-0.35938h-1.2609l-0.35625-0.17969-0.54062-0.53906-1.7922-3.6016v-0.54375l0.35781-0.35938 10.953-5.3969 1.4359 0.17656h0.72031v-0.9l-1.9766-3.4203-0.5375-0.54063h-0.17969zm95.898 41.592-0.35938 0.17969-0.54218 0.72031h-1.075l-1.9734-0.18125-0.89844 0.18125-1.0781 0.35782-1.0781 0.54218-2.6938 1.6188-0.35781 1.6188-0.17969 0.90312-0.36093 1.2625h0.17968l0.54219-1.0844 0.89375-0.9 0.71875-0.35781 0.54063-0.18125 0.89531-0.18125 2.1562-0.17969 0.72031-0.17812 0.5375-0.18125 0.71875-0.54063h0.5375v0.54063l-1.2562 2.3391-0.71719 2.1609-0.54062 2.3438-0.17813 1.0797v3.2391l0.17813 0.9 0.17812 0.54063 0.3625 0.72031 0.71719 0.9 0.35781 0.17969h0.36094l0.71719-0.35782 1.2578-1.2609 0.35937-0.54062-0.17812-0.18125h-0.54063l-0.5375-1.0781-0.18437-0.72187-0.17656-0.9v-5.0422l0.17656-1.4422 0.36562-1.8 0.35625-1.4375 1.0781-2.7 0.17813-0.36093v-0.53907h-0.17813zm-43.817 0.9-1.6172 1.2594-2.8734 1.2594v0.36094l1.2547 0.17969v0.72031l-2.6922 10.08-0.53906 1.4438-0.36094 0.17969h-0.89531v0.53906l4.6688 1.2609 0.17969-0.71875-0.89844-0.54219 2.6938-10.981 1.0797-2.8812 0.35625-1.2594v-0.725l-0.17813-0.175h-0.17812zm10.775 1.8-0.71875 0.17969-1.0828 0.36094-0.71406 0.36094-0.53906 0.35781-0.71875 0.72031-0.5375 1.0797v1.4422l0.17656 0.53906 0.18125 0.35781 0.36094 0.54063 1.6141 1.4422v0.35782l-0.35625 0.18124-2.1562 0.53907-1.4359 0.72187-0.90156 0.9-0.35625 0.90157-0.18125 1.4375 0.18125 1.2625 0.71562 1.2562 1.0781 1.0844 1.0797 0.71719 1.075 0.54375 1.6188 0.53906 1.4359 0.36094h2.5141l1.0766-0.36094 0.35937-0.17968 0.53906-0.35938 1.4375-1.4406 0.35625-0.53906 0.18125-0.72187v-1.2594l-0.18125-0.72344-0.5375-1.0797-0.35625-0.53749-0.9-0.72344-1.2578-1.2594v-0.35937l2.5141-0.90156 0.71875-0.53907 0.71719-0.71875 0.18281-0.36094v-2.3406l-0.54062-1.0781-1.2547-1.2609-0.53907-0.36094-1.0797-0.53906-0.5375-0.18125-0.71875-0.17969-1.0781-0.17969h-1.4344zm16.161 0.35782-0.36094 0.18125-0.89688 0.71875-1.9734 1.8v0.54062h0.89374l0.36095 0.36407 0.18125 0.53906 0.72031 12.061-0.36407 0.35937-0.71718 0.18437v0.53907h1.9766l1.975-0.18281 1.2578-0.17969v-0.36094l-0.18125-0.18125h-0.72031l-0.35625-0.17812-1.0781-12.244v-2.1562l-0.17969-1.6234-0.17656-0.18125h-0.36093z" fill="#ffcb05"/>
   <path d="m129.37 14.918-1.0797 0.17812-0.71719 0.17969-0.53749 0.18125-0.72032 0.35625-1.075 1.0828-0.36094 0.54062-0.71875 1.6203-0.17968 0.71875-0.17657 1.0797v1.8016l0.17657 0.90156 0.17968 0.71875 0.90157 1.8 0.53437 0.72031 0.90156 0.90156 0.53751 0.35625 1.4359 0.72188 0.89844 0.18281h1.4391l0.89844-0.18281 1.2547-0.53906 1.075-0.72188 0.54062-0.53906 0.89844-1.6172 0.36094-1.0828 0.17656-1.0797v-2.1609l-0.17656-1.2609-0.90313-1.9797-0.53438-0.72031-0.9-0.9-0.53749-0.3625-1.0797-0.5375-0.5375-0.17969-1.0781-0.17812h-0.89688zm-73.813 10.981-0.5375 0.17812-0.71719 0.36094-1.075 1.0797-0.3625 0.90312 0.3625 0.5375 0.71719 0.54062 2.875 3.9625h0.71562l0.89688-0.53906 0.72188-0.54375 0.5375-0.54063 0.71875-1.2594v-1.9797l-0.54219-1.0812-0.89375-1.0797-1.0797-0.53906h-2.3375zm110.81 82.641-0.17656 0.17812-0.18281 0.36094v1.0797l0.5375 0.35937h1.4375l0.3625-0.35937v-1.2609l-0.3625-0.35781h-1.6156zm-123.55 0.53906-0.72031 0.72188-0.17812 0.35781v0.9l0.54219 0.72188 0.35625 0.17812h1.6156l0.5375-0.53906v-1.4438l-0.35781-0.54062-0.71719-0.35626h-1.0781zm120.68 3.4203-0.71562 0.90313-0.36094 0.71719-0.18125 0.72343v1.4391l0.90156 1.0781 0.35625 0.17812h1.7984l2.1531-1.9797 0.35938-0.71563 0.36093-0.18437h0.71876l0.35625 0.36094v1.6188l-0.17657 0.36562-0.89844 0.9-0.36093 0.17813h-0.5375l0.17812 0.36093 0.35938 0.17969 0.71875 0.17656h0.54062l0.89688-0.89531 0.35937-0.72187 0.17813-0.54375v-1.9797l-0.5375-1.0812-0.35937-0.35781-0.36094-0.18125h-1.6141l-0.71875 0.36406-2.1531 2.5172-0.3625 0.17968h-0.5375l-0.17969-1.6187 0.17969-0.36094 0.5375-0.54219 0.71875-0.35781h0.5375v-0.36094l-0.35625-0.17812-0.71875-0.18126h-1.0797zm-123.19 1.8031v1.7984l0.17656 0.72031 0.36094 0.53907h0.35625l0.36094-0.72188 0.18125-0.17812h0.35625l0.71875 0.36093 0.72031 2.3406-0.18125 1.8-0.35625 0.17813h-1.0813v1.0812l0.17969 0.72188 0.5375 1.2625h0.54219l0.35937-0.90469 5.5656-5.3984-0.17969-0.18125-0.89531-0.53906-0.36094-0.17969-1.4359-0.18125-4.4891-1.4391-0.36094-0.18438-0.5375-0.53906v-0.35625h-0.5375zm4.3062 3.0578h0.17969l0.71875 0.17968 0.54219 0.18125 0.17812 0.18125-0.54062 0.89844-0.53594 0.36094h-0.18125l-0.18125-1.4406-0.17969-0.36093zm124.45 1.6219-0.54062 0.71875-0.71875 0.36094-2.8703 0.9h-0.89844l-2.3344 0.54375-0.36407 0.17656v0.53906l0.18125 0.36094 4.85 4.5031 0.17813 0.35625v1.0828h0.89687l0.72187-2.1625v-0.71719h-0.53749l-0.18438 0.35625-0.89687-0.53906-0.17813-0.17969 0.35938-2.7 0.17813-0.53906 0.36093-0.36094 0.36094-0.17656h0.17656l0.54219 0.17656 0.17656 0.17969v0.53906h0.54062l0.35782-0.35781 0.17969-0.72188 0.18125-1.9781-0.18125-0.36094h-0.53751zm21.727 1.9797-0.17968 0.17813-0.17657 1.6219-0.18281 1.0781-0.5375 1.9812h1.4391l1.4344-0.17656 3.2328-0.53906 0.89844-0.18438 0.36094-0.35937-5.3891-3.0562-0.18125-0.36562-0.35625-0.17813h-0.3625zm-141.51 1.2609-0.17656 0.17656v1.0844l-0.17969 0.17813-0.35781 0.17813-2.6938 1.0828-1.2594 0.36094h-0.89687l-0.5375-0.36094h-0.36094v0.72032l0.72031 1.7984 0.35938 0.72187h0.35781l0.18125-0.9 0.35625-0.36094 0.3625-0.17969 1.0781-0.35937h0.17656l0.5375 1.0781-0.35625 0.9-0.5375 1.0812-0.3625 1.6203v1.4438l0.18125 0.9 0.18125 0.53749 0.5375 0.90157h0.71719l-0.36094-0.90157v-1.9812l0.18125-0.71876 0.89844-1.9781h0.17812l1.075 0.9h0.90312l0.89844-0.3625 0.35625-0.36094 0.18125-0.71562v-1.6234l-0.5375-1.8-1.0797-2.7-0.35625-0.36094h-0.36562zm115.48 0.17813h0.5375v0.72031l-0.35781 0.71876-1.0797-1.0781 0.35781-0.17969 0.54219-0.18125zm-4.8516 2.1609-0.17969 0.17969v0.72031l-0.71562 1.9797-1.2609 2.7047-0.71719 0.53907 1.4359 0.9h0.5422l0.17812-0.17813-0.17812-1.4453 0.17812-0.35938 0.17812-0.17969h0.72032l1.6172 0.53907 1.2547 0.54062 0.89687 0.53907 0.5375 0.36562 0.54219 0.53438v0.72187h0.53749l1.2594-2.7016v-0.9h-0.5375l-0.36093 0.54062h-1.4406l-3.0516-1.2609-0.53906-0.35625-0.53906-0.72344 0.53906-1.2594 0.36406-0.17969 0.35625-0.36093 0.18126-0.35625-0.18126-0.18282h-0.53749l-0.36094-0.36093h-0.71875zm-110.8 0.72187h0.36094l0.18125 0.17813 0.35625 0.90156-0.17969 1.9781-0.54219 0.18124-1.075-0.9-0.35938-0.72031-0.17812-0.53906v-0.36094l0.17812-0.17969 1.2578-0.53906zm4.4891 6.1234-1.7969 0.17813v0.35625h0.36094l0.89844 0.90468 0.5375 1.6188-0.71875 0.54218-1.4359 0.9-1.975 1.0797h-1.0797l-0.5375-0.18125 1.2578 2.7031 0.54062 0.53751h0.35625v-1.0812l0.72031-0.72032 1.6172-1.0797 2.1516-1.0781h0.18281l0.35781 0.35937 0.5375 0.71876 0.3625 0.72187 0.17969 1.0781h0.35781l0.17969-0.53907 1.075-0.9-1.075-1.0797-2.6953-4.3203v-0.71875h-0.35938zm103.26 0.35625-0.18125 0.17969-0.71719 1.4422v0.90156l1.075-0.18282 1.0797 0.35938 3.7719 1.9844 0.53749 0.53907v0.54062h0.35938l0.71562-0.72344 0.35938-0.71718 0.18125-1.0797-0.71876 0.17969h-0.53749l-1.4391-0.54375-2.1531-1.0797-1.2578-0.71563-0.5375-0.54062v-0.54375h-0.5375zm-1.2625 4.1438-0.71563 0.17969-0.35625 0.17656-1.2578 1.2625-1.0781 1.4406-1.0781 1.9812h0.71875l0.35937-0.18125 3.5891 2.5203 0.89843 0.71875 0.36094 0.54219 0.17657 0.89844h0.36093l1.0766-1.6188 0.53907-0.36093 0.17968-0.72031h-0.71875l-0.17969 0.36249h-0.35624l-0.90156-0.36249-1.075-0.9 0.17656-0.71876 0.5422-0.54062h2.5125l0.89844-0.18125 0.5375-0.17813 1.0797-0.54062 0.89688-0.9v-0.72031h-0.54063l-0.35625 0.17656-0.17812 0.36406-1.0781 0.35938-1.2594 0.17812-1.6172-0.17812-0.17813-1.9797-0.17812-0.36094-0.53906-0.53906-0.71876-0.17969h-0.54218zm-0.5375 1.6188h0.5375l0.71874 0.71719v0.54375l-0.17656 0.72187-1.0797 1.4391h-0.17813l-1.4359-0.9 0.35938-1.2609 0.72031-0.9 0.53438-0.36094zm-97.152 1.4391-0.53906 1.2609-1.0812 1.2625-0.89375 0.72031-0.54062 0.35782-1.2562 0.9h-0.72188l-0.71719-0.17813 0.18438 0.5375 0.71406 1.2625 0.72188 0.54062 0.89688 1.0813 0.71875 0.9 0.71719 1.2578h0.5375l1.6188-0.17812 0.35625-0.18126v-0.54062h-0.71562l-0.53906-0.17812-1.8-1.6234-0.35625-0.53751-0.18125-0.36249v-0.53751l1.2562-1.2625h0.18438l0.71406 0.72187 0.36094 1.2562v0.36563h0.36094l0.71562-0.36563 0.71875-0.53906 0.18125-0.17657v-0.54062l-0.5375 0.17813h-0.18125l-0.71563-0.71719-0.54219-1.0828 0.89844-0.72188h0.71875l1.4375 1.6219 0.35781 0.72187-0.18125 1.2562h0.71875l1.0813-0.89531v-0.54375l-0.36406-0.53906-0.53438-0.72188-0.72031-0.9-2.5141-2.8797h-0.5375zm91.586 3.6016-0.35937 0.72031-2.6938 2.5234-0.72031 1.2562 0.54219-0.17656h0.36094l1.2516 0.9 2.5172 2.5172 0.5375 0.72187v1.261h0.5375l3.2359-3.2438 0.89375-1.0797-0.5375-2.1562h-0.35625l-0.17969 0.175v1.0812l-0.3625 0.72344-1.9719 1.8h-0.18437l-0.35625-0.17969-0.5375-0.90313 0.35625-1.6172h0.18125l1.0781 0.17656-1.4359-1.6203h-0.72187v0.18124l0.18125 0.53907-0.18125 0.36093-0.89375 0.71876h-0.18125l-0.5375-0.35625-0.71563-0.90469 0.175-0.71875 1.0781-1.0797 0.89844-0.18125h1.075l-0.71719-1.0797-0.71875-0.35937h-0.5375zm-85.48 4.5016-0.36094 0.17969-0.5375 0.54062-0.18125 0.36094v1.9797l0.36094 0.9v1.9828l-0.36094 0.35625h-0.71875l-1.0766-0.9-0.17969-0.35938v-0.72031l0.17969-1.6203h-0.71719l-0.54219 0.36093-0.5375 0.54376v0.89531l0.18125 0.54062 0.35625 0.72031 1.4375 1.4391 1.0797 0.54375h1.6172l0.89375-0.72031 0.3625-0.72344v-1.6188l-0.3625-1.0766-0.17656-0.90469v-1.0797l0.35781-0.35938h0.71719l0.90156 0.9 0.17656 0.35938-0.17656 2.3406h0.71719l1.075-1.0812-0.71719-1.9797-1.4359-1.4391-0.71875-0.36093h-1.6141zm81.172 0.17813-0.54219 0.36249-1.6141 1.6203 0.17969 0.35938h0.71875l0.53906 1.0844 0.5375 1.7953 0.18125 1.4406h-0.3625l-2.6938-1.2609-0.53594-0.35625-0.3625-0.36251 0.18125-1.0812h-0.35937l-0.53751 0.36406-0.53906 0.71718-1.6156 1.0828v0.54062h0.53906l1.975 0.17813 5.5656 2.8812h0.53751l-0.17657-1.9812-0.71718-2.3391-0.54219-3.4234v-1.6219h-0.35625zm-75.788 6.8438-0.35781 0.17969-0.35781 0.36093v1.2594l1.0781 0.90156h0.89375l0.54219-0.36094 0.17656-0.36093v-1.2578l-0.17656-0.3625-0.18125-0.17968-0.36094-0.17969h-1.2562zm7.3641 1.8-0.36094 0.17969-0.71875 0.72187v1.8l0.71875 1.2578 1.0813 1.4422-0.18281 1.4391-0.5375 0.17969h-0.17969l-0.5375-0.17969-0.5375-0.35937-0.71875-0.89688-0.17969-0.54375v-1.6203h-0.54062l-0.17813 0.18125-0.53906 0.72187-0.18125 0.35626v0.90468l0.18125 0.35625 0.89531 1.0797 1.4359 0.90469 0.9 0.17812h1.6187l0.89844-0.35938 0.17656-0.18437 0.17969-0.35625v-1.9828l-0.5375-1.0797-0.36094-0.53906-0.5375-0.36094-0.36094-0.71719v-1.2625l0.36094-0.18124h0.18125l0.53438 0.18124 0.36406 0.17969 0.5375 0.53907 0.35625 0.72187 0.18125 1.2578-0.18125 0.36406h0.71875l0.36094-0.36406 0.35625-0.89844 0.18125-0.5375v-0.36406l-1.7937-1.4375-1.0812-0.54218-0.53438-0.17969h-1.4391zm61.059 0.17969-0.53749 0.54374v1.2563l0.71875 0.54374h1.075l0.53906-0.36406 0.35937-1.4359-0.35937-0.36406-0.35937-0.17968h-1.436zm-6.6453 1.0828-0.17812 2.1578v5.5828l-0.72031 0.72188h1.2578l1.6172-0.72188 0.17968-0.36094-0.17968-0.17968h-0.54063l-0.17813-1.0812 0.71876-0.53907 1.4359-0.71875 0.53907-0.18125h0.71875l0.17812 0.72032-0.17812 0.71875h0.53749l2.1531-1.2578 0.72032-0.72187v-0.18125l-1.0766 0.18125h-0.17969l-2.8734-1.6203-0.53907-0.36094-0.71875-0.53906-1.7953-1.6188h-0.89844zm-4.4891 1.6172-1.6141 0.54062-0.71875 0.36094-0.18125 0.17812v0.36563h0.53749l0.36251 0.35625 1.9719 6.1234-0.5375 0.35626 0.17969 0.36406h0.5375l2.6938-1.2609 0.18125-0.35938h-0.90156l-1.075-1.8016-1.2594-3.4219v-0.9l0.36094-0.36094v-0.54062h-0.5375zm-41.302 1.0797-1.0797 0.36406-0.54062 0.35626-0.89687 0.90468-0.54219 1.0797v2.3391l0.18282 0.54062 0.18125 0.35938 0.35626 0.54062 0.89843 0.9 0.71875 0.35938 0.5375 0.17969 1.0813 0.18125h1.075l0.89843-0.18125 0.35626-0.35781 0.54218-1.9813h-0.71718l-0.9 1.0781-0.53906 0.18125h-1.0797l-1.0734-0.53906-0.71875-1.2609v-1.4438l0.5375-1.2562 0.72187-0.71875 0.53282-0.36406 0.54218-0.17969h0.5375l0.53906 0.17969 0.71874 0.36406 1.075 1.0797v0.53906h0.54219l0.5375-1.2609v-0.35781l-0.18125-0.18125-0.89844-0.53906-1.075-0.54063-0.89843-0.36406h-1.9719zm47.048 0.002h0.17813l0.35937 0.18125 0.89844 0.72031-0.17969 0.35781-1.0781 0.54063h-0.17813v-1.8zm-9.8812 0.17969-1.4359 0.54062-1.2547 0.53906-2.1531 0.54063h-1.2594l-0.17813 0.18125 0.17813 1.8h0.5375l0.18437-0.54063 0.17657-0.18125 1.0766-0.35781h0.54062l0.53907 0.17969 0.89531 3.4234 0.17969 2.1562-0.71719 0.35938 0.17969 0.3625h1.2562l1.7969-0.3625 0.35938-0.17657 0.17968-0.18281v-0.35624l-1.0812-0.18438-0.35625-0.9-0.35782-1.4391-0.18125-0.9-0.175-1.0812-0.18437-1.4375 0.18437-0.18124 0.35625-0.18125 0.89687-0.175h0.18126l0.17812 0.35625h0.89688l-0.35782-1.6203-0.17968-0.18124h-0.90156zm-29.986 1.6187v0.36563h0.35625l0.36094 0.35625v1.9828l-0.71718 3.0609-0.3625 0.89843-0.175 0.35938-0.18125 0.17813h-0.53906l-0.17813 0.18281v0.36093l3.5922 0.71875h0.35625l-0.89687-0.89843 0.17656-2.3422 0.18125-1.0797 0.36094-1.4391 0.5375-1.0828 0.72031-0.54062 0.17656-0.35938-0.17656-0.17969-0.5375-0.17656-0.89843-0.18437-1.2578-0.18126h-0.89843zm22.805 0.54219-1.7922 0.36094-0.72031 0.17969v0.35937l0.72031 0.17969 0.35625 0.36094 0.18126 0.53906v2.5234l-3.5922-3.7844h-2.3375l-1.075 0.18125-0.36094 0.17969v0.36094l0.18125 0.18281h0.89843l0.53751 0.17656 0.18281 0.54063 0.175 5.0422-0.175 0.35938-0.90156 0.36093 0.18124 0.35626h3.05l0.36095-0.35626-0.17969-0.18281-0.71875-0.17812-0.35625-0.35938-0.36094-4.4984v-0.18438h0.17968l5.3906 5.5828h0.35624l0.35938-0.3625-0.35938-3.0609v-2.6969l0.35938-1.6219v-0.36094l-0.17813-0.17969h-0.3625zm-17.058 0.17969v0.53906l0.71718 0.18125-0.18125 4.5031-0.175 1.8-1.0797 0.54063v0.35937h2.1562l1.075 0.17969 1.9781 0.54219h1.0766l0.71407-0.18125 0.36562-0.18437 0.53751-0.53907 0.35937-1.4406h-0.72188l-0.35937 0.17969-0.71875 0.72187h-2.8703l-0.89844-0.35625v-1.6219l0.17656-0.54374h1.4406l0.7172 0.18125 0.53749 0.72344h0.35938l0.17813-0.90469h0.1828l-0.1828-1.4359h-0.35625l-0.53751 0.54063h-0.89844l-0.9-0.18438-0.54062-0.17813 0.18438-1.6219 0.17656-0.35625h2.3344l0.53751 0.17812 0.35937 0.17813 0.36094 0.36094 0.17656 0.71875h0.36562l0.175-2.1594-1.4375-0.18125-4.8484-0.53906h-0.53594zm-0.71875 21.788-0.5375 0.17813-0.36094 0.17968-0.71875 0.72188-0.35626 0.9v1.0812l0.17657 0.71875 0.36094 0.71875 1.2547 1.2594 0.5375 0.18125h1.6172l1.2578-0.72031 0.71719-0.72031 0.18125-0.54063v-1.8l-0.18125-0.35781-0.35625-0.53906-0.71875-0.72188-0.54063-0.36093-0.5375-0.17813h-1.7953zm-1.7969 7.5594-0.71875 0.35938-1.4344 1.0844-0.72187 1.6172v2.1625l0.18125 0.54063 0.89844 1.0797 1.6187 0.71875h3.0531l1.0766-0.9 0.35626-0.72344v-1.9781l-0.35626-0.9-0.36094-0.54062-0.71562-0.9-1.4406-1.2609-0.5375-0.35938h-0.89844z" fill="#00274c"/>
   <path d="m50.716 165.97-0.89844 0.18125-1.075 0.35781-0.72031 0.36094-1.0797 0.72031-1.4359 1.4391-0.71875 1.0797-0.5375 1.4438-0.17969 1.0797v1.9812l0.17969 1.0797 0.35781 1.0797 0.89844 1.6203 1.2594 1.2609 0.71875 0.53906 1.0766 0.54062 1.7953 0.53907h2.8766l0.89375-0.18126 0.54062-0.17656 1.2578-0.54218 0.5375-0.35782 0.71562-0.54218 0.90312-0.9 0.53438-0.71876 0.54062-1.0812 0.35938-1.0797 0.17969-1.6219v-0.3625l-0.17969-1.6156-0.18125-0.9-0.89688-1.9797-0.35625-0.54375-0.90312-0.9-0.71562-0.54063-0.9-0.53906-0.89531-0.36094-0.54062-0.17812-0.71719-0.18125h-2.6938zm107.39 0.35937-0.90312 0.17969-0.71563 0.18125-0.5375 0.17969-0.72032 0.35937-1.2578 0.90156-0.89844 0.9-0.5375 0.72032-0.35938 0.53906-0.71875 1.6188-0.17969 0.72187v2.5234l0.17969 0.89532 0.3625 1.0828 0.89375 1.6219 1.6188 1.6188 0.5375 0.36093 1.6172 0.72032 0.71563 0.17968 1.2594 0.18125h1.4344l1.2609-0.18125 0.71719-0.17968 0.5375-0.18125 1.0766-0.53907 0.71875-0.54062 1.2594-1.2594 1.075-1.8016 0.36094-1.0828v-3.7797l-0.17969-0.71719-0.5375-1.2625-0.36094-0.53906-0.71875-0.90156-1.2562-1.0797-0.53907-0.35938-1.0797-0.54062-0.53594-0.17969-0.71874-0.18125-1.0797-0.17969h-1.7906z" fill="#fff"/>
   <path d="m50.71 166.84-0.90781 0.18126-0.54844 0.18437-0.36094 0.18281-0.54531 0.54531 1.0922 2.1828 1.0875 1.6391h0.90781l1.4531-0.17969 0.54688-1.8203 0.3625-2.55-0.18281-0.18437-0.36094-0.18126h-2.5438zm108.29 0.36094-1.4547 0.18438-0.3625 0.18125-0.18125 0.18125v0.54375l0.725 2.9141 0.18281 0.36563 0.3625 0.35937 0.36094 0.18594 1.6328 0.17969h0.18438l1.2703-2.0016 0.72343-1.275v-0.54375l-0.54374-0.54531-0.72344-0.36406-0.72656-0.18125-1.0906-0.18438h-0.35937zm-103.61 0.9-0.18594 0.72969-1.1047 1.0969-0.73281 2.0078h0.36875l0.18281-0.54844 2.3859-2.0062v-0.73125l-0.36406-0.36719-0.37031-0.18125h-0.17969zm99.82 0.71875-0.54843 0.73281 0.18125 0.54688 2.3797 2.375h0.36718l0.18126-0.54844-1.8281-2.7375-0.37031-0.36875h-0.36251zm-107.93 0.18281-0.54844 0.54688-0.18125 0.73437 0.72969 0.54688 2.3781 1.6438h0.3625l0.18438-0.3625-1.6453-2.0141-1.0938-1.0953h-0.18594zm116.04 0.72032v0.36562l-2.1922 2.0219-0.18595 0.92031 0.54844-0.18281 2.7438-1.8375 0.18125-0.18438v-0.55312l-0.54844-0.55h-0.54687zm-106.13 0.71875-0.725 0.36406-1.2703 0.72969-0.90937 0.54374-0.36406 0.36094v2.1875l0.36406 0.17813 3.2703 1.0938h0.54688l0.36094-0.54688 0.17969-0.91093v-1.6328l-0.17969-1.0937-0.18125-0.72501-0.54844-0.54843h-0.54375zm96.055 0.54218-0.18281 0.18126-0.72813 1.4547v2.3672l0.54376 0.9125h0.18437l2.3672-0.54844 1.0891-0.36406 0.36406-0.54531 0.17969-1.2766 0.18125-0.35938-1.4547-0.91563-1.8188-0.90625h-0.725zm-107.76 0.54063-0.17969 0.18125-0.18125 0.54375-0.18281 2 0.18281 0.9125 0.36094 1.0891 0.36406 0.54688h0.3625l1.2734-0.36094 2.1797-1.275 0.17812-0.18438v-1.8188l-0.17812-0.36249-0.36719-0.36563-0.36094-0.18125-0.54688-0.17969-2.7234-0.54531h-0.18125zm118.74 0.71719-0.72969 0.18125-1.6344 0.54844-0.36407 0.18124-0.36093 2.3641 0.36093 0.36718 0.54532 0.36251 2.0016 1.0906h0.54531l0.72656-1.0906 0.18125-0.54532 0.18126-0.91094v-2l-0.36251-0.54843h-1.0906zm-112.61 0.92656 0.17656 0.90156h0.17969l0.18125-0.72031-0.18125-0.18125h-0.35625zm107.57 0.3625-0.35937 0.17969 0.18125 0.72031h0.17812l0.17812-0.9h-0.17812zm-1.7703 1.4125-0.36562 0.18437-0.91094 0.54844-1.2766 1.0953-1.0891 0.36718v0.91562l0.35937 0.36407h0.72969l2.7344-2.7422v-0.73281h-0.18126zm-107.04 0.18125-1.6422 1.8281-1.2766 0.72656v0.91251l0.54531 0.36718h0.73125l0.3625-1.2797 0.36719-0.54531 0.9125-0.91562 0.18125-0.3625 0.18594-0.55v-0.18125h-0.36719zm3.3656 0v0.55l1.2734 0.91719 1.2766 1.4672h0.72969l0.36719-0.36718v-0.55l-0.54844-0.55-0.54844-0.36719-2.1875-1.1h-0.3625zm-1.9594 0.35781-0.54375 0.18282-0.18125 0.18593-0.90625 2.9109v1.275l0.17969 0.18125 0.54375 0.17969h2.7219l1.4531-0.72656 0.18281-0.18282-0.18281-1.2734-1.6312-2.55-0.18125-0.18282h-1.4547zm108.45 0.18125v0.73125l0.91406 0.90937 0.3625 0.55 1.0969 1.825h0.54688l0.54687-0.36406v-0.54844l-2.9219-2.9172-0.36095-0.18594h-0.18437zm-2.1297 0.18282-0.54688 0.54531-1.6312 2.7297v0.90781l0.18124 0.18125 1.6313 0.72968h2.3625l0.725-0.36405v-1.0938l-1.0891-3.4594-1.0906-0.17656h-0.54218z" fill="#00274c"/>
   <path d="m100.64 33.462-1.9734 0.17812-1.8 0.17812-1.4359 0.18281-2.1547 0.36094-1.7953 0.35781-0.17969 0.18125 0.17969 0.53906 0.71406 0.54062 2.875 3.9609 0.17969 0.53906 1.6172 2.7h0.90156l1.7922-0.35625 0.53749-0.18281 0.72032-3.7813 0.71719-2.1594 1.7984-3.0609v-0.17812h-2.6938zm5.3844 0v0.17812l1.2562 1.6172 2.1609 4.6844 0.5375 2.3391 0.17656 0.17969 0.71718 0.18125 2.6984 0.53906h0.89376l1.2609-2.5188 0.71563-1.0812 0.53906-0.72031 3.2344-3.6031v-0.35625l-1.6156-0.36094-1.975-0.35938-2.5156-0.3625-1.6188-0.17812-1.9734-0.17812h-4.4922zm-17.595 1.9781-0.008 0.0016h-0.17344v0.03594l-0.71874 0.14688-1.4375 0.35625-3.5906 1.0828-1.975 0.71719-2.5141 1.0781-0.0016 0.0016h-0.17969v0.17969 0.0016h0.0016l0.36094 0.53906 0.89844 0.35938 0.89375 0.72344 0.89688 0.9 1.0797 1.2609 0.53906 0.71875 2.1547 3.4219 0.72187 0.71875h0.35626l2.6953-1.4406 0.175-0.18281-0.35626-1.7969v-3.4219l0.5375-2.1609 0.18125-0.9 0.17969-1.0797v-1.2609h-0.71718zm34.298 0.18281v0.35625l0.89844 2.8797 0.35782 0.72188 0.17968 1.0828 0.18126 2.3391-0.18126 3.7797 0.5375 0.54375 1.2609 0.71719h0.35625l1.0797-1.6172 1.6141-1.8047 2.1562-1.9797 2.3344-1.8 1.4344-0.71875v-0.36094l-0.17656-0.18125-1.9766-0.9-0.89844-0.35938-1.4375-0.54062-2.6922-0.9-4.3094-1.2578h-0.71876zm-48.127 4.6797-3.9547 1.9797-1.2562 0.72031-2.6906 1.6188-2.5172 1.8047v0.35625h0.89844l1.0797 0.36094 0.71719 0.35938 0.5375 0.3625 0.90156 0.71719 3.2281 3.6031 1.4391 1.2594 0.71719 0.54062 1.9719 0.9h0.90312l1.6172-1.8-0.3625-0.9-0.35625-0.54062-0.5375-0.35938-0.89844-2.3422-0.18438-0.9-0.18125-2.7016v-3.4203l-0.175-0.9-0.18125-0.53906-0.18125-0.17969h-0.53438zm61.955 0.53906-0.89687 3.2406-0.17969 1.9797-0.17657 1.0812-0.18437 0.9-0.5375 2.1625-0.35937 0.9-1.2578 1.9797v0.54063l1.6172 1.6188h0.72187l4.8438-4.6797 1.975-1.6219 1.7984-1.2609 0.71718-0.35625 1.7953-0.36094 0.36094-0.18281v-0.35625l-0.71718-0.54375-3.0547-1.9797-0.9-0.53906-1.2547-0.72187-2.3359-1.1703v-0.09062h-0.17968l-0.17656-0.0875v-0.09063h-0.17969l-0.72031-0.36094h-0.71876zm-33.403 3.6016-2.1562 0.17812-2.5109 0.36094-1.7953 0.36094-2.1578 0.53906-2.3375 0.72188-3.0484 1.2625-2.3344 1.2562-2.5156 1.4438-0.89844 0.53906-1.9766 1.4375-1.075 0.9-3.4109 3.4203-0.89844 1.0828-0.71875 0.9-0.5375 1.0797h1.7938l0.89844-1.2594 0.35625-0.35938 3.2359-3.0609 1.0766-0.9 4.1328-3.0641 0.89531-0.53906 1.2609-0.71719 1.7906-0.90312 1.2594-0.54062 3.7688-1.2562 2.1562-0.54375 1.7984-0.35625 1.2547-0.18281 1.439-0.18125 3.5922-0.17969h0.3578l3.0516 0.17969 1.4344 0.18125 1.0812 0.18281 1.7953 0.35625 2.1516 0.54375 1.8 0.54062 1.4359 0.5375 0.89844 0.3625 4.3109 2.1594 0.89375 0.54062 1.6188 1.0766 2.1547 1.6234 3.2344 2.8797 1.0734 1.8 1.2563 1.0797h1.8v-0.53594l-0.53751-0.72344-0.89687-1.0812-4.1344-4.1422-1.7953-1.4375-2.8766-1.9797-0.89688-0.54375-3.0531-1.6156-1.2547-0.54062-1.4344-0.54375-2.1563-0.72031-1.2594-0.35938-1.4359-0.35938-1.7953-0.36094-2.5156-0.36094-2.3328-0.17812h-4.3109zm44.897 3.4219-1.0781 1.0797-0.71719 1.2594-0.36094 0.9-0.5375 2.1594-0.17812 1.8016-0.3625 1.4406-0.35625 1.0797-1.0797 1.6203v0.53906h3.9547l1.0734-0.17656 1.0781-0.3625 5.2094-2.8813 1.075-0.35938h1.2578l0.71719-0.35938-3.4109-3.2406-1.4375-1.2609-1.0734-0.9-3.0531-2.3391h-0.72031zm-86.198 0.35625-0.0062 0.0031h-0.17188v0.08594l-0.18281 0.09219-1.9734 1.4406-2.3375 1.9797-4.8469 5.0391h0.89844l1.2547-0.35625h1.075l1.0812 0.18125 1.2563 0.89844 3.2312 1.6219 1.0781 0.35938 1.4391 0.35938 1.6172 0.18125h0.89844l1.2531-0.18125v-0.35938l-0.89688-0.72031-0.89844-1.2609-0.89844-1.6188-0.36094-1.0812-0.5375-2.1625v-0.9l-0.89688-2.7-0.5375-0.90156h-0.5375zm-11.317 10.447-1.7922 2.1609-1.8 2.3391-3.05 4.4984-0.35938 0.90469h0.71719l1.7984-0.18438 1.6141 0.18438 1.7969 0.35938 0.71875 0.17812 3.2312 1.0828 1.4359 0.53594 2.6938 1.2609 2.875 0.90156h0.5375l-0.18125-1.6234-0.35625-1.075-0.54219-1.0828-0.71563-1.0781-0.71875-0.90312-5.3891-5.2203-0.89844-1.0781-0.71875-1.2609-0.35625-0.9h-0.54062zm109.37 0-0.17657 1.0781-0.36094 0.54219-0.71875 0.89844-1.0766 1.2609-3.5922 3.4203-1.6125 2.1625-1.0797 1.6172-0.53906 1.4438h2.3328l5.0312-1.8047 1.2547-0.35625 1.4359-0.35938 0.90157-0.18438 1.2547-0.17812 3.4125 0.17812h0.89844l-0.10469-0.17812h0.10625v-0.17812h-0.21093l-2.1234-3.6-0.89844-1.2625-1.9781-2.5219-1.7953-1.9781h-0.36093zm-47.588 2.5172-0.17656 0.18125-0.18125 0.3625-0.18438 0.71719v1.0797h3.2359l2.6938-0.17969 0.17969-1.9797-5.2063-0.18125h-0.36093zm-36.273 0.18281-0.36562 0.17969-0.17188 2.1594h1.7906v-0.18125h0.18125v0.18125h0.35625l3.2359-0.18125 0.17812-1.9781-4.6672-0.17969h-0.5375zm9.3375 0-0.71875 0.17969-0.18281 0.18125-0.17813 0.71875 0.17813 1.2594h0.53906l4.1313-0.18125 0.36094-0.9 0.17969-1.0781-0.17969-0.17969h-4.1297zm7.7203 0-0.18125 0.17969-0.17656 0.53906v1.4391h6.1016l0.3625-1.9781-1.6156-0.17969h-4.4906zm10.594 0-1.075 0.17969-0.17969 1.8 1.075 0.17813h2.8766v-0.17813h0.17813v0.17813h0.71718l1.2609-0.17813 0.175-0.17969 0.18125-1.8h-5.2094zm17.958 0-0.175 0.17969-0.18125 0.35938-0.18125 1.2609 0.18125 0.35781h0.89844l4.4875-0.17813 0.17969-1.9797h-5.2094zm27.3 0-0.36094 0.9v1.0797h1.2594l0.5375-0.17969 0.35937 0.17969v1.0813l-0.35937 0.53906-0.71719 0.54062v0.35938l0.35625 0.17969 0.72031 0.17969h0.89844l1.6172-1.6203 0.35625-0.54062v-0.35938l-2.3344-2.3391h-2.3328zm-18.5 0.0016-0.17656 0.35938-0.17969 1.4406 0.17969 0.17656h5.7453l0.17813-1.9766h-5.7469zm9.3391 0-0.17812 0.17812-0.17813 0.72188v1.0766h5.5641l0.36093-1.0766v-0.9h-5.5688zm-81.708 0.17656-1.2562 1.6219 0.5375 0.89844 2.8734 3.0594h0.5375l1.2562-0.35625v-0.3625l-0.89844-1.2594-0.35781-0.54062v-0.71562l0.18125-0.18438h1.9734l0.35938-1.2594v-0.90156h-5.2063zm8.6188 0-0.18125 0.18125v0.54062l-0.35625 1.2578 0.17812 0.18125h5.2063l0.5375-2.1609-4.3062 0.18125h-0.36094v-0.18125h-0.71719zm81.169 7.2031-0.71406 1.6203-0.72188 2.3406-0.17656 1.0781 0.17656 1.6234h1.2594l0.54062-0.17969 0.17656-1.8031 1.2594-3.0594 0.35625-0.72031v-0.36094l-0.17656-0.17969-1.0766-0.35938h-0.90313zm-84.941 1.4422-0.5375 0.17969-0.71719 0.35625 0.35625 1.4437 0.36094 0.9 0.18125 2.7h1.075l0.71719-0.18125v-2.5188l-0.17969-1.4391-0.22969-0.53906h-0.30781v-0.18125h0.22969l-0.07813-0.18437h-0.33281v-0.35781h0.17969l-0.17969-0.17812h-0.5375zm0.71719 0.17812 0.0016 0.0016 0.15156 0.35625h0.02813v-0.35781h-0.18125zm0.23125 0.54219 0.07813 0.18125h0.05313v-0.18125h-0.13125zm-21.419-0.54219-0.18125 0.17969-2.3328 4.5v0.54063l-2.1562 4.5-0.36094 1.4391h0.53906l0.35938-0.35625 1.2578-0.35938 0.89844-0.18437 1.6141-0.17812h1.6172l1.4391 0.17812 0.71719 0.18437 1.7938 0.53906 6.6469 2.3406 1.7953 0.35938 1.2578 0.17813h2.5125l1.2578-0.17813 0.17656-0.17813v-1.6219l-0.17656-0.17969-3.2328-1.4438-4.6672-3.2344-0.89844-0.54531-2.1547-1.0781-0.90156-0.36094-1.075-0.17969-1.6156-0.90156-1.4359-1.0797-1.4391-1.4391-0.5375-1.0812-0.36094-0.35938h-0.35625zm125.53 0.17969-1.6141 1.8-1.6125 1.0797-1.6188 0.9-1.2578 0.53906-2.6938 0.90469-0.71875 0.53906-3.7703 3.9609-1.2562 1.0797-1.0781 0.72031-1.2562 0.71875-1.7953 0.36094-0.18437 0.72031h5.9266l1.8-0.18125 1.4359-0.17813 1.075-0.17969 0.89688-0.18125 1.4406-0.54062 2.1516-0.35938 1.2594-0.17969 6.6438 0.17969h1.9734l-0.5375-2.1609-2.1531-4.5031v-0.53906l-1.975-3.6562v-0.125h-0.0672l-0.11406-0.21094v-0.14531h-0.0782l-0.1-0.18437v-0.17813h-0.17969-0.17656-0.36562zm-21.905 8.2828v5.2219h1.975v-3.9625l-0.18282-1.0812-0.53437-0.17812h-1.2578zm-83.506 0.35938v4.6812h1.975l-0.18281-4.6812h-1.7922zm-25.861 4.3219-0.18125 0.17813-0.45 1.8031h-0.08906v0.17657h0.04531l-1.3031 5.2219-0.35781 1.8031-0.36094 3.0594h0.36094l1.4375-0.53906 1.0781-0.18438 1.7953-0.17656h1.4359l2.6938 0.17656 2.3359 0.36562 2.6922 0.175 3.4125 0.18282h5.925l2.8719-0.18282 1.2578-0.175v-1.9812l-0.17969-0.17969h-1.7953l-1.4359-0.18438-1.075-0.18125-2.1562-0.53906-2.5141-0.9-1.6203-0.71875-6.4625-3.6-5.5672-3.0609-1.0766-0.53906h-0.71719zm137.2 0.9-1.7953 1.8-0.72031 0.53906-1.0766 0.72031-2.6937 1.2594-1.4359 0.36406-2.3375 0.54062-3.7688 0.71562-1.075 0.36094-2.8766 1.2578-0.17812 0.36094-1.6172 0.72031-3.2312 0.90313-1.7969 0.18125-0.18124 0.35781v0.72188l0.35937 0.35625 0.35938 0.18282 1.0781 0.36094 1.7938 0.18125h1.6172 0.18281 0.17813v-0.13438l0.53906-0.40781 3.0516-0.18282h5.5656l1.4391-0.175 0.89844-0.18125 3.5922-0.36094h2.8719l1.9766 0.36094h2.3312l-0.0266-0.18125h0.0266v-0.17969h-0.0547l-0.48437-3.2422-0.71563-3.4219-0.72031-2.5203-0.5375-1.2578h-0.5375zm-111.16 3.0625v5.2234h1.7953v-5.0453l-0.18125-0.17812h-1.6141zm83.506 0.35625-0.17968 3.0625 0.17968 2.5203 0.71563 0.17968h1.0797v-5.7625h-1.7953zm-83.506 8.2844 0.17969 5.7625h1.2563l0.35937-0.18281v-5.5797h-1.7953zm83.684 0.72187-0.17812 0.35625 0.17812 5.4047h1.8v-5.0422l-0.18124-0.71875h-1.6188zm30.172 0.53906-1.075 1.2578-1.0828 0.9-0.71875 0.5375-0.5375 0.36563-0.89688 0.53906-1.975 0.71875-0.18125 0.18125v2.8797h2.1562l0.53751 0.18281 0.35937 0.17812 0.5375 0.53907 0.36094 0.71875 0.17656 0.9v3.0609l-0.35625 4.6844-1.0781 5.4-1.4359 5.4031-2.1562 5.9391-3.9484 8.2844-2.1547 3.6-3.9531 5.3984-0.89532 1.0812-1.2578 1.4406-5.3891 5.4031-1.4344 1.2594-1.0797 0.9-0.89376 0.71875-3.2359 2.3422-2.6938 1.8-4.4906 2.7031-2.8734 1.4391-1.975 0.9-1.2547 0.54063-0.89688 0.35937-1.4406 0.54063-2.6922 0.9-1.7953 0.53906-3.5922 0.90313-3.5922 0.71875-1.075 0.17812-1.2625 0.18125-1.4359 0.17969-1.6141 0.17969-2.1547 0.18125h-8.9797l-2.1547-0.18125-1.6172-0.17969-1.4375-0.17969-1.2547-0.18125-1.0781-0.17812-2.6953-0.54063-1.6156-0.35937-3.9484-1.0797-3.7734-1.2609-2.6922-1.0797-1.2594-0.54375-2.3328-1.0766-3.4125-1.8-1.2594-0.71874-3.5922-2.3438-3.05-2.1609-1.6172-1.2609-1.0781-0.89844-1.6156-1.4406-4.3062-4.3234-2.3375-2.6969-3.5922-4.8625-2.1547-3.2438-2.5172-4.1406-2.6922-5.5797-2.8719-7.9203-1.2563-4.8609-0.36094-1.6219-0.17969-0.9-0.35781-1.9797-0.17969-1.2656v-5.0359l0.17969-0.9 0.35781-1.0828 0.54062-1.0766 0.35781-0.54063 0.36094-0.18281 0.5375-0.17969h1.6188l0.35625-0.18125v-3.6l-0.71719-0.35781-2.3328-0.72188-1.4391-0.18125-1.6156-0.5375-1.0797-0.72031h-0.35625l-0.16094 1.4391h-0.02187v0.18125h0.0016l-0.17969 3.2375v4.6844l0.17969 3.4219 0.18125 1.7953 0.17656 1.6234 0.36094 2.5203 1.0797 5.2203 1.0719 3.9625 2.3391 6.4812 1.9719 4.3203 0.36094 0.1828 3.4125 6.3 2.8734 4.3203 3.7734 4.6797 4.1297 4.3234 2.3328 2.1594 1.2578 1.0812 1.975 1.6203 3.7734 2.7 2.1531 1.4391 4.1297 2.5234 3.4109 1.8 0.71875 0.35626 1.6172 0.72343 1.2547 0.53906 2.875 1.0812 2.6937 0.9 1.2594 0.35938 4.3109 1.0812 2.6891 0.54375 2.3375 0.35625 2.8719 0.36094 1.975 0.17812 2.875 0.18125h7.3641l3.0531-0.18125 1.7922-0.17812 1.6172-0.17969 2.5125-0.3625 3.7734-0.71875 1.6172-0.36094 2.1516-0.53906 1.2594-0.36094 1.8-0.53906 2.5109-0.9 1.4344-0.54063 0.89844-0.35937 1.2594-0.54063 1.9766-0.9 0.71719-0.36094 4.1312-2.1625 2.8734-1.8 2.6938-1.8 3.2312-2.3391 0.89843-0.72187 1.0797-0.89844 1.4344-1.2594 5.5656-5.5844 1.2594-1.4391 2.3328-3.0609 1.0797-1.4406 3.05-4.5 2.6969-4.5031 3.2312-7.0172 1.0766-2.8828 0.35781-1.0844 0.71718-2.3344 0.5422-1.9844 0.53749-2.3375 0.71719-4.1438 0.18125-1.4406 0.18125-1.6234 0.17813-1.7953 0.17813-2.7v-6.8453l-0.17813-2.5188-0.17813-1.4391v-0.0016-0.35938h-0.0734l-0.10782-0.53906h-0.53749zm-121.04 4.3188v0.36094l1.2594 3.4219 1.2594 2.5172 0.53438 1.6234 0.3625 1.4391 0.17812 1.0828v3.7781l-0.17812 0.71875-0.18125 0.54219-0.18125 0.35937-0.35781 0.36406-0.71875 0.35626-1.0766 0.36093-0.71875 0.17812-1.0766 0.18126h-2.5156l0.53906 2.5234 2.1547 5.9391 3.5922 6.4812 1.0781 1.6188 2.1547 3.0656 1.0781 1.2578 5.7438 5.7609 1.4391 1.2609 1.0766 0.9 0.89688 0.71875 2.5156 1.8 2.1562 1.4438 1.9734 1.2609 1.6188 0.89531 2.1516 1.0844 1.6172 0.71875 1.2578 0.5375 1.4359 0.54375 2.6938 0.9 1.2562 0.35781 2.8766 0.72188 1.7906 0.35937 1.0828 0.17969 1.2562 0.18125 1.4344 0.17969 1.7969 0.17812h5.925v-0.35781l-3.2312-2.3406-0.89844-0.53906-1.2562-0.72031-2.5172-1.2609-2.8703-1.2609-5.2094-1.9797-4.4859-1.6219-2.5172-0.9-2.6906-0.71719-3.4156-1.2625-3.4125-1.4422-2.5109-1.2578-1.2594-0.72187-1.4344-0.9-1.2594-0.9-0.89688-0.71875-2.1547-2.1609-0.54063-0.72031-1.4344-2.7031-0.54219-1.6156-0.17656-0.9-0.17969-1.0844-0.17969-8.6406v-16.566l-0.18125-3.7812-0.18125-0.175-2.8703-0.72344-0.89844-0.18125h-1.9766zm7.3641 3.7828v5.7625h1.7953l-0.17656-5.7625h-1.6188zm91.228 0.17813-4.1297 1.6188-0.35626 0.18125-0.18281 0.18437 0.18281 22.503v1.4406l-0.18281 0.9-0.35937 1.439-0.35782 1.0813-0.71874 1.6203-1.7969 2.7-0.89688 1.0781-1.6172 1.6219-1.075 0.90156-1.7969 1.2609-0.53906 0.36094-1.9766 1.2594-3.2328 1.6203-1.6156 0.72032-8.8016 3.4188-7.1828 2.1609-2.6938 1.0828-2.8734 1.4359-2.3328 1.6234-1.9766 2.1609h1.0766v0.002h0.72344v-0.0438l1.7906-0.14219 2.8766-0.35625 3.7687-0.72031 2.1563-0.53906 1.2578-0.36094 1.7953-0.53906 3.7703-1.4406 1.2562-0.53906 3.9531-1.9844 3.2359-1.9797 3.5891-2.3406 1.2547-0.89844 1.7953-1.4391 1.2594-1.0828 3.7688-3.7828 1.9781-2.3359 2.5125-3.4234 1.2562-2.1609 1.9766-3.7797 3.4156-7.2 0.53281-1.4391 0.36563-1.4453v-1.0781h-3.9578l-0.89532-0.18125-1.0781-0.54062-0.18125-0.17813-0.53438-1.0797-0.18125-0.72031-0.18125-1.2609 0.3625-2.7 2.4391-6.1203h0.0718v-0.17812l0.002-0.005v-0.36094h-0.71875zm-7.3625 0.35937-0.35938 0.18438v4.8562l0.53751 0.18281h0.54374l0.89375-0.18281v-3.0609l-0.175-1.7953-0.18124-0.18438h-1.2594zm-0.17813 8.4656 0.17969 6.1234h1.7953l-0.18282-5.9438-0.89375-0.17969h-0.89844zm-83.688 0.17813v5.2234h1.7953l0.17969-0.18281-0.17969-4.8594-0.35938-0.18124h-1.4359zm54.773 4.5016-1.9734 0.18125 0.5375 0.35781 0.5375 0.5375 0.36094 0.54375 0.17813 0.54062v1.6203l-0.17813 0.53906-0.5375 0.72187-0.36094 0.17813-2.1547 0.72344-2.1563 0.5375-0.89843 0.17968-1.075 0.17969-1.6188 0.18125h-5.0281l-1.6156-0.18125-1.075-0.17969-0.89844-0.17968-1.4375-0.35938-1.0797-0.36094-1.075-0.54062-0.71875-0.54062-0.71718-1.0797v-0.71875l0.35625-0.72032 1.6172-1.6219-0.18126-0.35781h-0.35625l-5.9297 0.17968-0.89844 0.17813-5.025 4.8609-0.36094 0.36093-2.6938 2.8828h18.856l26.756-0.18282 3.2359-3.9609 3.2312-4.1391v-0.36093h-15.623zm16.161 2.3422-1.2562 1.4391-3.2312 3.9594-0.36094 0.53907-1.2578 2.3422-0.35625 1.2594v1.0812l0.17968 0.53907 0.35938 0.53906h1.075l0.54219-0.35625 2.5109-3.0625 1.4375-1.8 2.1547-2.8797v-0.54062l-0.71874-0.54063-0.53595-1.0797-0.18124-1.4391h-0.36094zm-70.753 1.6188-0.18125 0.17969 0.18125 5.4016h1.6156l0.17656-5.4016-0.17656-0.17969h-1.6156zm84.227 0.71876-0.72032 0.18124v1.6219l0.17813 2.8781 0.54219 0.18282h1.2547v-4.6828l-0.5375-0.18124h-0.71719zm-55.494 5.7609-12.033 0.18125-0.71562 0.71875-0.54219 1.0828v1.4406l0.36094 0.72031 0.18125 0.17969 0.5375 0.17656 2.6891 0.18438h10.42l15.441-0.36094h0.18125v0.17656h0.35625v-0.17656h0.18124v0.17656h0.5422l15.262-0.17656 1.2594-0.17969-0.3625-0.72031-0.17812-0.71875v-1.0844l0.35937-0.72031 0.18125-0.53906v-0.36094l-20.112 0.18125h-0.89688v-0.18125h-4.4953v0.18125h-1.6156v-0.18125h-2.6906v0.18125h-3.5922v-0.18125h-0.71875zm-28.017 2.3406-0.35938 0.18124 0.35938 2.5188 0.36094 1.0828 0.89844 1.2609 0.89844 0.9h0.5375l0.89688-0.9v-0.36094l-0.71562-0.53906-1.2594-1.8-0.17656-0.53907v-1.0844l-0.18125-0.35625-0.36094-0.36406h-0.89844zm82.431 0.18124v0.72188l-0.36094 0.9-1.4359 2.3391v0.54062l0.72188 0.53907h0.89688l0.53749-1.2563 0.35626-0.18281 0.71875-1.9797 0.17968-0.72188v-0.53905l-0.17968-0.17969-0.5375-0.18126h-0.89688zm-4.4891 6.8406-3.5922 2.8797v0.72188l0.5375 1.0828h0.5375l1.2594-0.72344 0.7172-0.5375 1.0781-0.9 1.075-1.0828 0.18125-0.54062-1.075-0.9h-0.71875zm-72.013 0.72187-0.71875 0.9v0.36094l0.17656 0.17968 0.72031 0.53907 0.5375 0.36093 3.4141 1.6203h0.5375l0.35938-0.72032v-0.71875l-2.1547-0.90312-2.1562-1.6188h-0.71562zm8.2594 3.9625v0.35625l-0.18125 0.54375-0.35625 0.71875 0.17656 0.17656 0.89844 0.36406 3.5922 1.2594h1.0797l0.35625-0.53907 0.18126-0.54374v-0.71719l-0.36094-0.17969-0.5375-0.18125-4.3109-1.2578h-0.5375zm56.391 0.35625-1.9766 0.72187-0.89844 0.36251-1.4359 0.72031v0.71874l0.17969 0.53751 0.35781 0.36249h0.36094l2.3328-0.9 1.2594-0.54374 1.075-0.53906-0.35625-1.2594-0.18124-0.18125h-0.7172zm-47.772 2.3406-0.5375 1.8047 4.3109 1.6172 0.71874 0.18281h0.71719l0.5375-1.2609v-0.53907l-0.18125-0.0937v0.0906h-0.35625v-0.18125h0.18125l-4.8531-1.6203h-0.5375zm5.3906 1.6203 0.175 0.0906v-0.0906h-0.175zm34.298-0.53907-0.72188 0.18125-3.4078 1.0797-0.36094 0.35938h-0.5375v1.0812l0.35625 0.71876h0.36094l5.0297-1.6188 0.17812-0.18124v-0.89844l-0.17812-0.54063-0.18126-0.18125h-0.53749zm-30.888 2.3406-0.18281 0.18125-0.53438 1.4406 2.8703 1.439 1.7969 0.72344h0.89688l0.53906-1.4438-0.35937-0.35937-0.7172-0.18125-0.18125-0.35625-1.6188-0.72344-1.9719-0.72031h-0.5375zm21.908 0.90157v0.0718l0.36093-0.0703h0.17656v-0.002h-0.53749zm0.53749 0.002v0.175h-0.53749v-0.10469l-0.53751 0.10469-0.71874 0.18437-1.6188 0.5375-2.1531 1.0781 0.17969 1.0844 0.36093 0.36094h0.53751l1.075-0.72187 1.4391-0.53907 2.1531-0.54062v-1.6188h-0.17969zm-14.364 3.2375-0.36094 1.4438 3.5922 2.5172h0.35781l2.875-2.161v-0.71874l-0.35781-0.72031-0.17968-0.17969h-0.54063l-0.35625 0.17969-0.18125 0.35936-1.7969 1.261-0.5422-0.72031-1.7906-1.261h-0.71875zm-52.62 14.225-0.71719 0.17813-0.18125 0.18125 0.72187 1.8016h1.2531l0.3625-0.72187 0.17813-0.72031v-0.54063l-0.17813-0.17813h-1.4391zm107.57 0.36094-0.17969 0.17813 0.17969 1.0812 0.17656 0.54062 0.18125 0.35782 0.54062 0.3625h0.53751l0.54062-0.3625 0.35625-0.71876 0.18126-1.0812-0.18126-0.17969-0.71562-0.17813h-1.6172zm-101.82 3.7797-1.2547 0.35937-0.36406 0.18126-0.17812 0.89843 0.35938 0.36094 1.6188 0.35937h0.5375v-2.1594h-0.71875zm96.973 0.17657-0.17813 0.18437-0.17812 1.4391 0.17812 0.36094h0.89688l1.0797-0.18125 0.35626-0.17969v-0.90156l-0.18125-0.17813-0.35626-0.17812-1.0797-0.36562h-0.5375zm-107.39 0.72343v1.8l0.35938 0.35937h0.35625l1.6172-0.9v-0.72031l-0.35781-0.35781-1.2594-0.18125h-0.71562zm116.55 0.72188-0.54219 0.17812v1.0812l0.3625 0.17969 1.2562 0.36094h0.35625l0.17969-1.8h-1.6125zm-110.99 2.8781-0.17656 0.18125-0.18125 2.1625h1.2563l0.89844-0.18281 0.18281-0.17969-0.72031-1.8-0.18125-0.18125h-1.0781zm106.5 0.53906v0.36094l-0.72187 0.72188-0.17656 0.9 0.35625 0.17812h1.9781l-0.36094-0.71563v-0.72343l-0.17656-0.36094-0.36093-0.36094h-0.53751z" fill="#fff"/>
  </g>
  <path d="m181.07 105.27a75.696 75.506 0 0 1 -74.369 75.494 75.696 75.506 0 0 1 -76.977 -72.847 75.696 75.506 0 0 1 71.67 -78.049 75.696 75.506 0 0 1 79.49 70.111" fill-opacity="0"/>
 </g>
</svg>
